<svg xmlns="http://www.w3.org/2000/svg" xmlns:xlink="http://www.w3.org/1999/xlink" width="308.002" height="63.323" viewBox="0 0 308.002 63.323">
  <defs>
    <clipPath id="clip-path">
      <rect id="Rect치ngulo_17468" data-name="Rect치ngulo 17468" width="154" height="34.233" transform="translate(0 0)" fill="none"/>
    </clipPath>
    <clipPath id="clip-path-2">
      <rect id="Rect치ngulo_17528" data-name="Rect치ngulo 17528" width="133.81" height="63.323" fill="none"/>
    </clipPath>
  </defs>
  <g id="logos-finales" data-name="Logos Finales" transform="translate(-22.998 -12)">
    <g id="Grupo_2488" data-name="Grupo 2488" transform="translate(177 31.255)">
      <g id="Grupo_2487" data-name="Grupo 2487" transform="translate(0 0)" clip-path="url(#clip-path)">
        <path id="Trazado_2959" data-name="Trazado 2959" d="M14.106,7.053A7.053,7.053,0,1,1,7.053,0a7.053,7.053,0,0,1,7.053,7.053" transform="translate(0 0)" fill="#1f63a9"/>
        <path id="Trazado_2960" data-name="Trazado 2960" d="M88.376,7.053A7.053,7.053,0,1,1,81.323,0a7.053,7.053,0,0,1,7.053,7.053" transform="translate(-53.034 0)" fill="#1f63a9"/>
        <path id="Trazado_2961" data-name="Trazado 2961" d="M88.39,77.444a7.053,7.053,0,1,1-7.053-7.053,7.053,7.053,0,0,1,7.053,7.053" transform="translate(-53.044 -50.264)" fill="#1f63a9"/>
        <path id="Trazado_2962" data-name="Trazado 2962" d="M14.12,77.444a7.053,7.053,0,1,1-7.053-7.053,7.053,7.053,0,0,1,7.053,7.053" transform="translate(-0.01 -50.264)" fill="#1f63a9"/>
        <path id="Trazado_2963" data-name="Trazado 2963" d="M138.366,24.789q.516-5.043.618-11.1l-4.416.114.052-1.152q.041-.923.062-2.024,2.946.021,6.867.021l2.562-.01h2.49l1.349-.011-.062,1.017q-.042.817-.057,1.352t-.015.807q-2.218-.114-3.659-.114h-.726q-.156,1.833-.24,3.387-.115,2.227-.178,4.324t-.063,3.392q-1.7-.021-2.2-.021-.446,0-2.385.021" transform="translate(-96.09 -7.587)" fill="#1f63a9"/>
        <path id="Trazado_2964" data-name="Trazado 2964" d="M183.922,24.634q.2-1.826.312-3.289t.2-3.393q.083-1.93.125-4.073t.042-3.409q1.3.031,2.1.031.83,0,2.023-.047t2.324-.047q1.328,0,2.366.1a5.811,5.811,0,0,1,1.416.3,4.057,4.057,0,0,1,1.073.555,3.385,3.385,0,0,1,.727.732,3.15,3.15,0,0,1,.451.949,4.106,4.106,0,0,1,.161,1.167,4.649,4.649,0,0,1-.176,1.3,3.792,3.792,0,0,1-.555,1.141,3.679,3.679,0,0,1-.954.924,8.432,8.432,0,0,1-1.614.794l.54,1.318q.228.55.488,1.121l1.391,3.04q.093.2.332.778-1.711-.021-2.3-.021-.746,0-2.447.021-.166-.54-.6-2-.177-.612-.3-.944-.25-.737-.738-2.065l-1.07-2.937a6.033,6.033,0,0,0,1.1.1,3.934,3.934,0,0,0,1.375-.228,1.847,1.847,0,0,0,.934-.705,1.792,1.792,0,0,0,.317-1.006,1.322,1.322,0,0,0-.238-.783,1.42,1.42,0,0,0-.753-.5,5.544,5.544,0,0,0-1.582-.166q-.363,0-.752.016t-.908.026q-.133,2.127-.236,5.188t-.133,6.008q-1.735-.021-2.254-.021-.6,0-2.171.021" transform="translate(-131.332 -7.432)" fill="#1f63a9"/>
        <path id="Trazado_2965" data-name="Trazado 2965" d="M229.575,24.789l.862-1.494L235.8,13.188l.571-1.131q.249-.5.7-1.432,1.826.021,2.666.021,1.463,0,2.708-.021l1.514,4.327,3.08,8.322.6,1.515q-1.8-.021-2.181-.021-.872,0-2.565.021-.456-1.712-1.316-4.026h-5.223q-.9,1.827-1.866,4.026-1.932-.021-2.368-.021-.79,0-2.545.021m8.034-7.046h3.223q-1.2-3.656-1.316-4.03-.684,1.523-1.161,2.5Z" transform="translate(-163.931 -7.587)" fill="#1f63a9"/>
        <path id="Trazado_2966" data-name="Trazado 2966" d="M296.6,24.789l.208-2.179.4-7.388.114-2.978V10.625q1.611.021,2.848.021.883,0,2.484-.021l4.43,8.055.61,1.183q.117-1.744.24-4.889t.122-4.35q1.275.021,2.042.021.353,0,2.032-.021l-.249,3.092-.467,8.592-.062,2.48q-1.35-.021-2.523-.021-.976,0-2.7.021-.539-1.017-.8-1.474L303.6,20.357q-.86-1.453-1.586-2.782-.477-.841-.984-1.848l-.224,4.921-.106,4.142q-1.285-.021-1.959-.021-.57,0-2.135.021" transform="translate(-211.793 -7.587)" fill="#1f63a9"/>
        <path id="Trazado_2967" data-name="Trazado 2967" d="M356.355,23.9q-.135-2.21-.311-3.538a11.133,11.133,0,0,0,2.074.721,7.469,7.469,0,0,0,1.6.2,3.286,3.286,0,0,0,1.44-.264.841.841,0,0,0,.535-.783,1.084,1.084,0,0,0-.052-.337,1.36,1.36,0,0,0-.2-.363,2.8,2.8,0,0,0-.416-.441l-1.955-1.7q-.686-.581-.957-.84a6.229,6.229,0,0,1-.858-.986,3.383,3.383,0,0,1-.447-.929,3.488,3.488,0,0,1-.14-1,3.569,3.569,0,0,1,.223-1.24,3.774,3.774,0,0,1,.669-1.136,3.846,3.846,0,0,1,1.183-.913,5.263,5.263,0,0,1,1.577-.524,10.512,10.512,0,0,1,1.733-.14,19.964,19.964,0,0,1,3.819.4q.031.716.073,1.313t.2,2.091a9.535,9.535,0,0,0-1.743-.534,7.432,7.432,0,0,0-1.359-.15,2.71,2.71,0,0,0-1.344.3.87.87,0,0,0-.534.747,1.03,1.03,0,0,0,.083.4,1.855,1.855,0,0,0,.311.462,5.468,5.468,0,0,0,.6.581q.374.317,1.173.939l.747.592a9.513,9.513,0,0,1,.716.654,7.114,7.114,0,0,1,.664.757,4.262,4.262,0,0,1,.431.685,2.958,2.958,0,0,1,.223.628,3.022,3.022,0,0,1,.073.68,3.808,3.808,0,0,1-1.712,3.17,5.308,5.308,0,0,1-1.8.763,9.521,9.521,0,0,1-2.07.218,23.544,23.544,0,0,1-4.244-.488" transform="translate(-254.238 -6.913)" fill="#1f63a9"/>
        <path id="Trazado_2968" data-name="Trazado 2968" d="M400.2,24.789q.516-5.043.618-11.1L396.4,13.8l.052-1.152q.042-.923.062-2.024,2.946.021,6.867.021l2.562-.01h2.49l1.348-.011-.062,1.017q-.042.817-.057,1.352t-.015.807q-2.218-.114-3.659-.114h-.726q-.156,1.833-.24,3.387-.115,2.227-.178,4.324t-.063,3.392q-1.7-.021-2.2-.021-.446,0-2.385.021" transform="translate(-283.054 -7.587)" fill="#1f63a9"/>
        <path id="Trazado_2969" data-name="Trazado 2969" d="M445.789,24.789q.26-2.677.38-4.483t.239-4.8q.12-2.994.12-3.969l-.011-.913q2.448.021,5.924.021,3.206,0,5.654-.021l-.021.341q-.01.124-.052.9l-.062,1.127q-.021.362-.021.734-2-.083-3.362-.083-1.494,0-2.018.005t-1.634.047l-.126,2.387q1.225.031,2.854.031.582,0,3.093-.073-.1,1.328-.2,3.165-1.795-.021-2.759-.021-1.431,0-3.2.073l-.123,2.521h1.193q.528,0,2.188-.031l2.147-.052q.477-.01,1.6-.083-.125,1.536-.208,3.175-2.532-.021-5.551-.021l-4.566.011Z" transform="translate(-318.322 -7.587)" fill="#1f63a9"/>
        <path id="Trazado_2970" data-name="Trazado 2970" d="M506.409,20.659q-.124.61-.3,1.7t-.239,1.691a27.115,27.115,0,0,1-3.964.332,11.177,11.177,0,0,1-3.128-.42,7.68,7.68,0,0,1-2.656-1.38,5.456,5.456,0,0,1-1.728-2.257,7.766,7.766,0,0,1-.519-2.905,7.889,7.889,0,0,1,.7-3.378,6.627,6.627,0,0,1,2.013-2.5,8.364,8.364,0,0,1,2.879-1.432,12.171,12.171,0,0,1,3.237-.431,22.807,22.807,0,0,1,3.8.394l.021.872q.021.57.062,1.256l.073,1.183q-1.214-.29-1.966-.394a10.256,10.256,0,0,0-1.4-.1,5.557,5.557,0,0,0-2.521.56,4.222,4.222,0,0,0-1.764,1.629,4.5,4.5,0,0,0-.643,2.366,3.693,3.693,0,0,0,.54,2.029,3.625,3.625,0,0,0,1.458,1.307,5.013,5.013,0,0,0,2.267.462,11.815,11.815,0,0,0,1.6-.119,19.3,19.3,0,0,0,2.174-.462" transform="translate(-352.658 -6.913)" fill="#1f63a9"/>
        <path id="Trazado_2971" data-name="Trazado 2971" d="M147.493,91.547l.063-.966.085-2,.028-.926q-.773,0-1.354.029c.013-.168.02-.317.022-.445q.8,0,1.73,0l1.01,0h.537q-.022.28-.022.445-.489-.029-1.083-.029h-.259l-.066,1.4-.066,1.969v.527l-.3-.006-.322.006" transform="translate(-104.478 -62.292)" fill="#231f20"/>
        <path id="Trazado_2972" data-name="Trazado 2972" d="M159.138,91.531l.063-.85.072-1.57.032-1.32q.006-.4.006-.572.379.006.628.006.215,0,.476-.006c.174,0,.317-.007.428-.007a3.2,3.2,0,0,1,.536.041.968.968,0,0,1,.433.188.919.919,0,0,1,.281.341,1.036,1.036,0,0,1,.09.441,1.312,1.312,0,0,1-.071.439,1.17,1.17,0,0,1-.208.367,1.134,1.134,0,0,1-.327.268,1.444,1.444,0,0,1-.363.129q-.145.032-.4.06l.556.888.575.881q.06.092.174.275-.244-.006-.327-.006t-.336.006l-.228-.433c-.046-.084-.093-.168-.139-.25l-.152-.265-.715-1.165q-.044-.069-.146-.243a2.437,2.437,0,0,0,.429.044,1.515,1.515,0,0,0,.573-.1.823.823,0,0,0,.4-.324.882.882,0,0,0,.141-.488.8.8,0,0,0-.044-.27.5.5,0,0,0-.14-.21.679.679,0,0,0-.189-.123,1,1,0,0,0-.24-.057,2.5,2.5,0,0,0-.311-.019l-.448.007q-.291,0-.369,0-.1,2.123-.12,3.9l-.31-.006q-.07,0-.307.006" transform="translate(-113.635 -62.276)" fill="#231f20"/>
        <path id="Trazado_2973" data-name="Trazado 2973" d="M169.952,91.547l.575-1.087,1.465-2.865.171-.36.367,0,.37,0,.546,1.547,1.01,2.764-.3-.006c-.057,0-.17,0-.338.006q-.085-.3-.283-.878t-.333-.932h-1.726l-.458.944-.4.865-.324-.006-.34.006m1.711-2.227h1.42l-.587-1.671Z" transform="translate(-121.357 -62.292)" fill="#231f20"/>
        <path id="Trazado_2974" data-name="Trazado 2974" d="M187.692,91.547l.063-.878.108-2.565.013-.5q0-.237,0-.369l.394,0,.363,0,.345.556,2.088,3.149.132-3.7.281,0,.279,0-.069,1.105-.085,1.949-.037,1.257q-.187-.006-.366-.006-.164,0-.382.006l-.291-.464-2.139-3.206c-.009.118-.017.3-.025.556l-.088,2.233-.019.881q-.205-.006-.275-.006l-.291.006" transform="translate(-134.024 -62.292)" fill="#231f20"/>
        <path id="Trazado_2975" data-name="Trazado 2975" d="M204.058,91.26q-.013-.3-.041-.521a3.205,3.205,0,0,0,.6.223,2.178,2.178,0,0,0,.514.065,1.186,1.186,0,0,0,.44-.08.652.652,0,0,0,.306-.227.572.572,0,0,0,.1-.337.611.611,0,0,0-.035-.207.729.729,0,0,0-.112-.2,2.274,2.274,0,0,0-.269-.268q-.191-.169-.542-.466l-.234-.2q-.133-.114-.24-.226a1.879,1.879,0,0,1-.18-.215,1.193,1.193,0,0,1-.112-.186.835.835,0,0,1-.062-.186.963.963,0,0,1-.022-.21.942.942,0,0,1,.148-.509,1.034,1.034,0,0,1,.447-.379,1.85,1.85,0,0,1,.788-.142,4.9,4.9,0,0,1,.862.095c0,.136.019.3.044.5a2.663,2.663,0,0,0-.878-.171,1.025,1.025,0,0,0-.455.09.69.69,0,0,0-.278.229.506.506,0,0,0-.095.287.59.59,0,0,0,.1.332,1.583,1.583,0,0,0,.18.223,4.015,4.015,0,0,0,.3.273l.361.3q.314.259.458.4a1.994,1.994,0,0,1,.229.264,1.036,1.036,0,0,1,.133.262.945.945,0,0,1,.047.3,1.008,1.008,0,0,1-.109.466.913.913,0,0,1-.313.349,1.351,1.351,0,0,1-.453.193,2.334,2.334,0,0,1-.521.057,3.192,3.192,0,0,1-.45-.033,5.851,5.851,0,0,1-.662-.15" transform="translate(-145.681 -62.119)" fill="#231f20"/>
        <path id="Trazado_2976" data-name="Trazado 2976" d="M213.528,91.547l.575-1.087,1.465-2.865.171-.36.367,0,.37,0,.546,1.547,1.01,2.764-.3-.006c-.057,0-.17,0-.338.006q-.085-.3-.283-.878t-.333-.932h-1.726l-.457.944-.4.865-.324-.006-.34.006m1.711-2.227h1.42l-.587-1.671Z" transform="translate(-152.473 -62.292)" fill="#231f20"/>
        <path id="Trazado_2977" data-name="Trazado 2977" d="M234.313,90.82q-.044.229-.079.5a5.759,5.759,0,0,1-1.14.126,2.844,2.844,0,0,1-.891-.141,2,2,0,0,1-.747-.434,1.746,1.746,0,0,1-.463-.692,2.47,2.47,0,0,1-.145-.853,2.778,2.778,0,0,1,.161-.938,1.96,1.96,0,0,1,.488-.766,2.084,2.084,0,0,1,.789-.471,3.009,3.009,0,0,1,.968-.156,5.25,5.25,0,0,1,1.084.114q0,.16.035.49a4.205,4.205,0,0,0-.6-.144,3.238,3.238,0,0,0-.467-.036,2.252,2.252,0,0,0-.72.116,1.621,1.621,0,0,0-.61.368,1.664,1.664,0,0,0-.406.621,2.133,2.133,0,0,0-.14.766,2.162,2.162,0,0,0,.113.7,1.4,1.4,0,0,0,.344.56,1.572,1.572,0,0,0,.551.351,2,2,0,0,0,.717.122,4.034,4.034,0,0,0,1.156-.2" transform="translate(-164.84 -62.118)" fill="#231f20"/>
        <path id="Trazado_2978" data-name="Trazado 2978" d="M248.54,90.82q-.045.229-.079.5a5.761,5.761,0,0,1-1.14.126,2.842,2.842,0,0,1-.891-.141,2,2,0,0,1-.747-.434,1.75,1.75,0,0,1-.463-.692,2.47,2.47,0,0,1-.145-.853,2.771,2.771,0,0,1,.161-.938,1.956,1.956,0,0,1,.488-.766,2.085,2.085,0,0,1,.79-.471,3.008,3.008,0,0,1,.968-.156,5.248,5.248,0,0,1,1.084.114q0,.16.035.49a4.216,4.216,0,0,0-.6-.144,3.235,3.235,0,0,0-.467-.036,2.253,2.253,0,0,0-.72.116,1.62,1.62,0,0,0-.609.368,1.661,1.661,0,0,0-.406.621,2.127,2.127,0,0,0-.14.766,2.177,2.177,0,0,0,.112.7,1.4,1.4,0,0,0,.344.56,1.569,1.569,0,0,0,.551.351,2,2,0,0,0,.717.122,4.035,4.035,0,0,0,1.156-.2" transform="translate(-174.999 -62.118)" fill="#231f20"/>
        <path id="Trazado_2979" data-name="Trazado 2979" d="M259.733,91.547l.047-.727.066-1.513.044-1.491c0-.086,0-.173,0-.259l0-.322.326,0,.306,0q-.057.789-.085,1.648-.05,1.377-.072,2.663l-.3-.006-.335.006" transform="translate(-185.466 -62.292)" fill="#231f20"/>
        <path id="Trazado_2980" data-name="Trazado 2980" d="M267.366,86.993a2.866,2.866,0,0,1,.888.136,1.871,1.871,0,0,1,.741.448,1.818,1.818,0,0,1,.457.7,2.534,2.534,0,0,1,.136.843,2.9,2.9,0,0,1-.152.935,1.918,1.918,0,0,1-.467.761,2,2,0,0,1-.777.469,3,3,0,0,1-.97.156,3.028,3.028,0,0,1-.927-.142,1.957,1.957,0,0,1-.756-.437,1.725,1.725,0,0,1-.451-.7,2.56,2.56,0,0,1-.139-.848,2.712,2.712,0,0,1,.167-.946,2.006,2.006,0,0,1,.494-.766,2.046,2.046,0,0,1,.789-.464,3.094,3.094,0,0,1,.968-.152m-.035.423a2.1,2.1,0,0,0-.717.122,1.483,1.483,0,0,0-.589.39,1.7,1.7,0,0,0-.373.631,2.371,2.371,0,0,0-.122.757,2.073,2.073,0,0,0,.12.7,1.425,1.425,0,0,0,.354.56,1.463,1.463,0,0,0,.562.333,2.162,2.162,0,0,0,.685.109,2.1,2.1,0,0,0,.7-.117,1.435,1.435,0,0,0,.575-.371,1.59,1.59,0,0,0,.359-.614,2.422,2.422,0,0,0,.117-.754,2.383,2.383,0,0,0-.106-.712,1.433,1.433,0,0,0-.338-.579,1.375,1.375,0,0,0-.551-.349,2.078,2.078,0,0,0-.676-.109" transform="translate(-189.189 -62.119)" fill="#231f20"/>
        <path id="Trazado_2981" data-name="Trazado 2981" d="M283.57,91.547l.063-.878.108-2.565.013-.5q0-.237,0-.369l.394,0,.363,0,.344.556,2.088,3.149.132-3.7.282,0,.278,0-.069,1.105-.085,1.949-.038,1.257q-.186-.006-.366-.006c-.109,0-.237,0-.382.006l-.291-.464-2.14-3.206q-.012.177-.025.556l-.088,2.233-.019.881q-.205-.006-.275-.006l-.291.006" transform="translate(-202.487 -62.292)" fill="#231f20"/>
        <path id="Trazado_2982" data-name="Trazado 2982" d="M300.646,91.547l.079-1.187.089-2.221.009-.483q0-.183,0-.42.713,0,1.462,0l1.007,0h.322c-.015.146-.024.294-.028.442l-.281-.016q-.1-.006-.359-.009t-.5,0q-.745,0-1.039.009l-.057,1.478q.487.009.872.009.42,0,1.1-.013-.022.221-.028.436l-1.087-.009q-.319,0-.888.013l-.057,1.56.329,0q.895,0,1.187-.006t.684-.028c-.015.156-.025.3-.029.445q-.761-.006-1.286-.006Z" transform="translate(-214.681 -62.292)" fill="#231f20"/>
        <path id="Trazado_2983" data-name="Trazado 2983" d="M312.727,91.26c-.009-.2-.022-.374-.041-.521a3.187,3.187,0,0,0,.6.223,2.167,2.167,0,0,0,.513.065,1.186,1.186,0,0,0,.441-.08.655.655,0,0,0,.307-.227.572.572,0,0,0,.1-.337.6.6,0,0,0-.035-.207.723.723,0,0,0-.112-.2,2.244,2.244,0,0,0-.268-.268q-.191-.169-.542-.466l-.234-.2q-.132-.114-.24-.226a1.906,1.906,0,0,1-.18-.215,1.267,1.267,0,0,1-.112-.186.848.848,0,0,1-.061-.186.98.98,0,0,1-.022-.21.945.945,0,0,1,.148-.509,1.031,1.031,0,0,1,.448-.379,1.846,1.846,0,0,1,.788-.142,4.9,4.9,0,0,1,.862.095q.006.2.044.5a2.661,2.661,0,0,0-.878-.171,1.027,1.027,0,0,0-.455.09.693.693,0,0,0-.278.229.506.506,0,0,0-.094.287.592.592,0,0,0,.025.172.608.608,0,0,0,.076.16,1.6,1.6,0,0,0,.18.223c.072.075.171.166.3.273l.361.3q.314.259.458.4a2.006,2.006,0,0,1,.228.264,1.01,1.01,0,0,1,.133.262.945.945,0,0,1,.047.3,1.008,1.008,0,0,1-.109.466.913.913,0,0,1-.313.349,1.352,1.352,0,0,1-.453.193,2.334,2.334,0,0,1-.522.057,3.2,3.2,0,0,1-.45-.033,5.846,5.846,0,0,1-.661-.15" transform="translate(-223.278 -62.119)" fill="#231f20"/>
        <path id="Trazado_2984" data-name="Trazado 2984" d="M329.665,91.547q.083-.935.128-1.889L328.4,87.236l.337,0,.318,0q.149.315.462.869t.592,1.087l1.1-1.716.142-.24.335,0,.316,0-1.26,1.863-.395.6-.062,1.44-.006.411c-.15,0-.253-.006-.31-.006s-.16,0-.31.006" transform="translate(-234.502 -62.292)" fill="#231f20"/>
        <path id="Trazado_2985" data-name="Trazado 2985" d="M347.678,91.547l.063-.966.085-2,.028-.926q-.773,0-1.354.029c.012-.168.02-.317.022-.445q.8,0,1.73,0l1.01,0h.537q-.022.28-.022.445-.489-.029-1.083-.029h-.259l-.066,1.4L348.3,91.02v.527l-.3-.006-.322.006" transform="translate(-247.424 -62.292)" fill="#231f20"/>
        <path id="Trazado_2986" data-name="Trazado 2986" d="M359.333,91.547l.079-1.187.089-2.221.009-.483q0-.183,0-.42.713,0,1.462,0l1.007,0h.322c-.015.146-.024.294-.028.442L362,87.662q-.1-.006-.359-.009t-.5,0q-.745,0-1.039.009l-.057,1.478q.487.009.872.009.42,0,1.1-.013-.022.221-.028.436L360.9,89.56q-.319,0-.888.013l-.057,1.56.329,0q.895,0,1.187-.006t.684-.028c-.015.156-.025.3-.029.445q-.761-.006-1.286-.006Z" transform="translate(-256.587 -62.292)" fill="#231f20"/>
        <path id="Trazado_2987" data-name="Trazado 2987" d="M375.169,90.82q-.045.229-.079.5a5.76,5.76,0,0,1-1.14.126,2.842,2.842,0,0,1-.891-.141,2,2,0,0,1-.747-.434,1.749,1.749,0,0,1-.463-.692,2.47,2.47,0,0,1-.145-.853,2.771,2.771,0,0,1,.161-.938,1.957,1.957,0,0,1,.488-.766,2.084,2.084,0,0,1,.789-.471,3.009,3.009,0,0,1,.968-.156,5.247,5.247,0,0,1,1.083.114q0,.16.035.49a4.235,4.235,0,0,0-.6-.144,3.241,3.241,0,0,0-.467-.036,2.251,2.251,0,0,0-.72.116,1.616,1.616,0,0,0-.61.368,1.66,1.66,0,0,0-.406.621,2.127,2.127,0,0,0-.141.766,2.17,2.17,0,0,0,.112.7,1.4,1.4,0,0,0,.344.56,1.573,1.573,0,0,0,.552.351,2,2,0,0,0,.717.122,4.034,4.034,0,0,0,1.156-.2" transform="translate(-265.421 -62.118)" fill="#231f20"/>
        <path id="Trazado_2988" data-name="Trazado 2988" d="M386.352,91.547l.063-.878.108-2.565.013-.5q0-.237,0-.369l.394,0,.363,0,.344.556,2.088,3.149.132-3.7.282,0,.278,0-.069,1.105-.085,1.949-.038,1.257q-.186-.006-.366-.006c-.109,0-.237,0-.382.006l-.291-.464-2.14-3.206q-.012.177-.025.556l-.088,2.233-.019.881q-.205-.006-.275-.006l-.291.006" transform="translate(-275.88 -62.292)" fill="#231f20"/>
        <path id="Trazado_2989" data-name="Trazado 2989" d="M405.438,86.993a2.866,2.866,0,0,1,.888.136,1.87,1.87,0,0,1,.74.448,1.811,1.811,0,0,1,.457.7,2.534,2.534,0,0,1,.136.843,2.9,2.9,0,0,1-.152.935,1.922,1.922,0,0,1-.467.761,2,2,0,0,1-.777.469,3.095,3.095,0,0,1-1.9.014,1.955,1.955,0,0,1-.756-.437,1.723,1.723,0,0,1-.452-.7,2.56,2.56,0,0,1-.139-.848,2.7,2.7,0,0,1,.168-.946,2,2,0,0,1,.494-.766,2.046,2.046,0,0,1,.789-.464,3.094,3.094,0,0,1,.968-.152m-.035.423a2.1,2.1,0,0,0-.717.122,1.485,1.485,0,0,0-.589.39,1.7,1.7,0,0,0-.373.631,2.371,2.371,0,0,0-.122.757,2.08,2.08,0,0,0,.12.7,1.426,1.426,0,0,0,.354.56,1.463,1.463,0,0,0,.562.333,2.162,2.162,0,0,0,.685.109,2.094,2.094,0,0,0,.7-.117,1.433,1.433,0,0,0,.575-.371,1.586,1.586,0,0,0,.359-.614,2.422,2.422,0,0,0,.117-.754,2.375,2.375,0,0,0-.106-.712,1.43,1.43,0,0,0-.338-.579,1.372,1.372,0,0,0-.551-.349,2.078,2.078,0,0,0-.676-.109" transform="translate(-287.782 -62.119)" fill="#231f20"/>
        <path id="Trazado_2990" data-name="Trazado 2990" d="M421.6,91.547q.073-.815.124-1.992t.065-2.32l.332,0,.294,0-.1,2-.076,1.887.6,0q.669,0,.942,0t.529-.02q-.019.2-.031.445-.718-.006-1.267-.006Z" transform="translate(-301.049 -62.292)" fill="#231f20"/>
        <path id="Trazado_2991" data-name="Trazado 2991" d="M434.788,86.993a2.866,2.866,0,0,1,.888.136,1.87,1.87,0,0,1,.74.448,1.811,1.811,0,0,1,.457.7,2.534,2.534,0,0,1,.136.843,2.9,2.9,0,0,1-.152.935,1.922,1.922,0,0,1-.467.761,2,2,0,0,1-.777.469,3.095,3.095,0,0,1-1.9.014,1.955,1.955,0,0,1-.756-.437,1.723,1.723,0,0,1-.452-.7,2.56,2.56,0,0,1-.139-.848,2.7,2.7,0,0,1,.168-.946,2,2,0,0,1,.494-.766,2.046,2.046,0,0,1,.789-.464,3.094,3.094,0,0,1,.968-.152m-.035.423a2.1,2.1,0,0,0-.717.122,1.485,1.485,0,0,0-.589.39,1.7,1.7,0,0,0-.373.631,2.372,2.372,0,0,0-.122.757,2.08,2.08,0,0,0,.12.7,1.426,1.426,0,0,0,.354.56,1.462,1.462,0,0,0,.562.333,2.162,2.162,0,0,0,.685.109,2.094,2.094,0,0,0,.7-.117,1.433,1.433,0,0,0,.575-.371,1.586,1.586,0,0,0,.359-.614,2.422,2.422,0,0,0,.117-.754,2.374,2.374,0,0,0-.106-.712,1.429,1.429,0,0,0-.338-.579,1.372,1.372,0,0,0-.551-.349,2.078,2.078,0,0,0-.676-.109" transform="translate(-308.739 -62.119)" fill="#231f20"/>
        <path id="Trazado_2992" data-name="Trazado 2992" d="M453.148,88.957l.84,0,.7,0q-.072.944-.1,2.28a7.978,7.978,0,0,1-1.635.205,3.521,3.521,0,0,1-.961-.13,2.049,2.049,0,0,1-.775-.395,1.632,1.632,0,0,1-.475-.682,2.443,2.443,0,0,1-.16-.881,2.482,2.482,0,0,1,.2-.993,2.142,2.142,0,0,1,.564-.782,2.188,2.188,0,0,1,.818-.452,3.517,3.517,0,0,1,1.007-.136,6.443,6.443,0,0,1,1.352.161q.007.237.032.512a5.516,5.516,0,0,0-.764-.2,3.529,3.529,0,0,0-.594-.055,2.552,2.552,0,0,0-.811.128,1.722,1.722,0,0,0-.66.391,1.694,1.694,0,0,0-.417.653,2.312,2.312,0,0,0-.142.8,2.05,2.05,0,0,0,.115.693,1.242,1.242,0,0,0,.349.529,1.6,1.6,0,0,0,.57.314,2.359,2.359,0,0,0,.731.109,3.964,3.964,0,0,0,.512-.039,3.628,3.628,0,0,0,.6-.134l.063-1.494h-.3q-.3,0-.682.016.019-.227.019-.42" transform="translate(-321.745 -62.118)" fill="#231f20"/>
        <path id="Trazado_2993" data-name="Trazado 2993" d="M467.87,88.471l.047-.727.066-1.513.044-1.491q0-.13,0-.259l0-.322.326,0,.307,0q-.057.79-.085,1.649-.051,1.377-.073,2.663l-.3-.006-.335.006m.284-4.716.291-.827q.154.006.319.006.149,0,.322-.006-.208.294-.546.827c-.059,0-.124-.006-.2-.006s-.132,0-.19.006" transform="translate(-334.089 -59.216)" fill="#231f20"/>
        <path id="Trazado_2994" data-name="Trazado 2994" d="M471.494,91.547l.575-1.087,1.465-2.865.171-.36.367,0,.37,0,.546,1.547L476,91.547l-.3-.006q-.086,0-.338.006-.085-.3-.283-.878t-.333-.932h-1.726l-.457.944-.4.865-.324-.006-.34.006m1.711-2.227h1.42l-.587-1.671Z" transform="translate(-336.677 -62.292)" fill="#231f20"/>
        <path id="Trazado_2995" data-name="Trazado 2995" d="M494.179,91.26q-.013-.3-.041-.521a3.192,3.192,0,0,0,.6.223,2.171,2.171,0,0,0,.513.065,1.186,1.186,0,0,0,.441-.08.656.656,0,0,0,.307-.227.574.574,0,0,0,.1-.337.6.6,0,0,0-.035-.207.723.723,0,0,0-.112-.2,2.244,2.244,0,0,0-.268-.268q-.191-.169-.542-.466l-.234-.2q-.133-.114-.24-.226a1.909,1.909,0,0,1-.18-.215,1.244,1.244,0,0,1-.112-.186.849.849,0,0,1-.061-.186.983.983,0,0,1-.022-.21.944.944,0,0,1,.148-.509,1.032,1.032,0,0,1,.447-.379,1.848,1.848,0,0,1,.788-.142,4.9,4.9,0,0,1,.862.095q.006.2.044.5a2.661,2.661,0,0,0-.878-.171,1.027,1.027,0,0,0-.455.09.692.692,0,0,0-.278.229.506.506,0,0,0-.095.287.591.591,0,0,0,.025.172.6.6,0,0,0,.076.16,1.6,1.6,0,0,0,.18.223q.108.112.3.273l.361.3q.314.259.458.4a1.99,1.99,0,0,1,.229.264,1.018,1.018,0,0,1,.133.262.953.953,0,0,1,.047.3,1.008,1.008,0,0,1-.109.466.913.913,0,0,1-.313.349,1.351,1.351,0,0,1-.453.193,2.334,2.334,0,0,1-.521.057,3.2,3.2,0,0,1-.45-.033,5.862,5.862,0,0,1-.661-.15" transform="translate(-352.846 -62.119)" fill="#231f20"/>
        <path id="Trazado_2996" data-name="Trazado 2996" d="M505.416,100.854l.025-.584.324.006.292-.006c-.009.09-.014.17-.016.24l-.016.344q-.206-.006-.292-.006t-.318.006" transform="translate(-360.9 -71.599)" fill="#231f20"/>
        <path id="Trazado_2997" data-name="Trazado 2997" d="M508.74,91.547l.575-1.087L510.78,87.6l.171-.36.367,0,.37,0,.546,1.547,1.01,2.764-.3-.006q-.086,0-.338.006-.085-.3-.283-.878t-.333-.932h-1.726l-.457.944-.4.865-.324-.006-.34.006m1.711-2.227h1.42l-.587-1.671Z" transform="translate(-363.273 -62.292)" fill="#231f20"/>
        <path id="Trazado_2998" data-name="Trazado 2998" d="M526.248,100.854l.025-.584.324.006.292-.006c-.009.09-.014.17-.016.24l-.016.344q-.206-.006-.292-.006t-.318.006" transform="translate(-375.775 -71.599)" fill="#231f20"/>
        <path id="Trazado_2999" data-name="Trazado 2999" d="M35.3,17.559c-1.3-.044-2.947-.117-4.245-.241a18.133,18.133,0,0,1-4.322-.735,8.333,8.333,0,0,1-3.027-1.706,6.782,6.782,0,0,1-1.754-2.824,17.4,17.4,0,0,1-.642-3.493,5.912,5.912,0,0,0-.075-.639q-.037-.326-.07-.653-.065-.641-.118-1.284c-.071-.886-.119-1.775-.132-2.663,0-.248-.011-.495-.018-.742V.66h-.074V2.579c-.007.247-.014.494-.018.741-.013.889-.06,1.777-.132,2.663q-.052.642-.118,1.284-.033.327-.07.653a5.912,5.912,0,0,0-.075.639,17.4,17.4,0,0,1-.642,3.493,6.785,6.785,0,0,1-1.754,2.824,8.33,8.33,0,0,1-3.026,1.706,18.136,18.136,0,0,1-4.322.735c-1.3.124-2.941.2-4.245.241-.076,0-1.883.027-1.958.029.075,0,1.883.026,1.958.029,1.3.044,2.946.117,4.245.241a18.122,18.122,0,0,1,4.322.735A8.325,8.325,0,0,1,18.017,20.3a6.785,6.785,0,0,1,1.754,2.824,17.406,17.406,0,0,1,.642,3.493,5.9,5.9,0,0,0,.075.639q.037.326.07.653.065.641.118,1.284c.071.886.119,1.774.132,2.663,0,.247.011.494.018.741v1.919H20.9V32.6c.007-.247.014-.494.018-.742.013-.889.061-1.777.132-2.663q.051-.643.118-1.284.033-.327.07-.653a5.9,5.9,0,0,0,.075-.639,17.406,17.406,0,0,1,.642-3.493A6.782,6.782,0,0,1,23.71,20.3a8.328,8.328,0,0,1,3.027-1.706,18.12,18.12,0,0,1,4.322-.735c1.3-.124,2.941-.2,4.245-.241.075,0,1.883-.027,1.959-.029-.076,0-1.883-.026-1.959-.029" transform="translate(-3.188 -0.471)" fill="#231f20"/>
      </g>
    </g>
    <g id="Grupo_2573" data-name="Grupo 2573" transform="translate(22.998 12)">
      <g id="Grupo_2573-2" data-name="Grupo 2573" clip-path="url(#clip-path-2)">
        <path id="Trazado_3096" data-name="Trazado 3096" d="M21.52,58.835c3.373.038,7.212.155,9.461,3.18a7.638,7.638,0,0,1,1.474,4.73,12.164,12.164,0,0,1-4.808,9.267c-3.3,2.4-7.135,2.21-11.013,2.21H12.6L9.849,86.21H0L9.422,58.835ZM14.812,71.863h2.4a8.016,8.016,0,0,0,1.938-.155,4.352,4.352,0,0,0,3.723-4.149,2.5,2.5,0,0,0-.5-1.513c-.621-.814-1.474-1.008-3.335-1.046H17.177Z" transform="translate(0 -22.887)" fill="#062e6b"/>
        <path id="Trazado_3097" data-name="Trazado 3097" d="M75.515,58.834l2.87,27.375h-9.5l-.271-4.071H57.8l-2.559,4.071H44.612L63.65,58.834Zm-7.677,6.747L61.285,76.593H68.3Z" transform="translate(-17.354 -22.886)" fill="#062e6b"/>
        <path id="Trazado_3098" data-name="Trazado 3098" d="M126.382,58.835c3.335,0,7.329-.117,9.81,2.753a6.116,6.116,0,0,1,1.435,4.032,7.351,7.351,0,0,1-2.714,5.622,10.5,10.5,0,0,1-5.545,1.823,4.948,4.948,0,0,1,2.559.931c.776.621,1.435,1.667,1.435,3.722a32.981,32.981,0,0,1-.621,4.963,12.7,12.7,0,0,0-.155,1.745,2.48,2.48,0,0,0,.35,1.435,3.829,3.829,0,0,0,.387.349h-9.732a3.546,3.546,0,0,1-.272-1.551,37.181,37.181,0,0,1,.427-4.033,13.244,13.244,0,0,0,.193-2.094,2.4,2.4,0,0,0-1.085-2.249c-.737-.387-1.667-.31-3.335-.349h-2.753l-3.489,10.275h-9.965l9.422-27.375ZM118.821,70h2.21c2.327,0,3.645,0,4.653-.426a3.3,3.3,0,0,0,2.016-2.87,2.038,2.038,0,0,0-.465-1.319c-.776-.736-1.939-.659-3.877-.7h-2.715Z" transform="translate(-40.188 -22.886)" fill="#062e6b"/>
        <path id="Trazado_3099" data-name="Trazado 3099" d="M174.175,58.834l-3.219,8.879,10.586-8.879h12.524L179.41,70.389l5.932,15.821h-9.965l-3.645-10.78L167.2,79.153l-2.365,7.057H154.9l9.461-27.375Z" transform="translate(-60.257 -22.886)" fill="#062e6b"/>
        <path id="Trazado_3100" data-name="Trazado 3100" d="M36.4,14.522l-1.731,5.425H28.825l-5.192,16.46H16.314l5.192-16.46h-6.44l1.73-5.425Z" transform="translate(-5.86 -5.649)" fill="#5a5b5e"/>
        <path id="Trazado_3101" data-name="Trazado 3101" d="M54.214,24.319l-1.191,3.565c.908-1.86,2.412-3.875,4.539-3.875a5.5,5.5,0,0,1,1.305.218,5.645,5.645,0,0,1,.511.248l-1.9,5.921a1.671,1.671,0,0,0-.341-.155,4.894,4.894,0,0,0-1.843-.372,2.782,2.782,0,0,0-1.7.527,6.167,6.167,0,0,0-1.9,3.348L49.618,40.1H42.412l5.049-15.779Z" transform="translate(-16.498 -9.339)" fill="#5a5b5e"/>
        <path id="Trazado_3102" data-name="Trazado 3102" d="M85.039,34.308c-.312.961-.653,1.922-.937,2.914a8.3,8.3,0,0,0-.511,2.077,1.374,1.374,0,0,0,.17.682H76.754l.624-2.294a4.7,4.7,0,0,1-1.248,1.395,6.807,6.807,0,0,1-4.369,1.395c-.511,0-3.348,0-4.795-2.17a4.462,4.462,0,0,1-.737-2.6,5.445,5.445,0,0,1,1.078-3.317c1.561-2.076,4-2.325,8.568-2.449a16.6,16.6,0,0,0,2.78-.216c.057-.031,1.276-.218,1.276-1.21-.028-.62-.539-1.178-1.674-1.178-.2,0-2.213.062-2.61,1.705H68.413a6.921,6.921,0,0,1,1.815-3.193c2.071-2.015,5.363-2.139,7.944-2.139,3.745,0,5.93.527,7.263,1.86a4.025,4.025,0,0,1,1.078,2.944,12.05,12.05,0,0,1-.681,3.348Zm-7.774-.93c-.425.093-.852.155-1.305.248a4.719,4.719,0,0,0-1.872.62,1.579,1.579,0,0,0-.738,1.3,1.186,1.186,0,0,0,.17.62,1.3,1.3,0,0,0,1.276.62,3.279,3.279,0,0,0,1.674-.434c1.305-.681,1.645-1.984,2.156-3.317-.455.125-.908.218-1.362.342" transform="translate(-25.763 -9.222)" fill="#5a5b5e"/>
        <path id="Trazado_3103" data-name="Trazado 3103" d="M110.383,24.2l-.823,2.48a4.982,4.982,0,0,1,1.334-1.488,6.151,6.151,0,0,1,4.113-1.488c2.61.031,4.028,1.24,4.539,2.387a4.452,4.452,0,0,1,.284,1.674,15.887,15.887,0,0,1-.681,3.534l-2.724,8.68h-7.348l2.5-7.843a10.763,10.763,0,0,0,.568-2.232,1.053,1.053,0,0,0-1.163-1.178,1.662,1.662,0,0,0-.993.31,4.1,4.1,0,0,0-1.475,2.294l-2.752,8.649H98.5L103.4,24.2Z" transform="translate(-38.314 -9.221)" fill="#5a5b5e"/>
        <path id="Trazado_3104" data-name="Trazado 3104" d="M146.974,29.192a1.592,1.592,0,0,0,.114-.558,1.091,1.091,0,0,0-.6-.96,3.007,3.007,0,0,0-1.475-.31c-1.191,0-1.986.465-1.958,1.178a.8.8,0,0,0,.227.558,5.909,5.909,0,0,0,2.411.713,17.64,17.64,0,0,1,4.312.992,3.766,3.766,0,0,1,2.27,3.441,5.1,5.1,0,0,1-1.135,3.1c-2.1,2.7-6.042,3.131-8.993,3.131a23.06,23.06,0,0,1-4.312-.372,7.133,7.133,0,0,1-3.433-1.519,3.283,3.283,0,0,1-1.135-2.418,4.833,4.833,0,0,1,.284-1.488h7.036a2.363,2.363,0,0,0-.114.651c0,.93.88,1.426,2.412,1.426,1.276,0,2.156-.465,2.156-1.209,0-.868-1.078-1.054-2.355-1.271-2.27-.341-5.021-.434-6.3-2.542a4.157,4.157,0,0,1-.568-2.107,5.22,5.22,0,0,1,2.666-4.371c2.071-1.333,4.653-1.55,7.008-1.55,3.461,0,5.617.527,6.923,1.518a3.581,3.581,0,0,1,1.418,2.914,4.629,4.629,0,0,1-.142,1.054Z" transform="translate(-51.841 -9.222)" fill="#5a5b5e"/>
        <path id="Trazado_3105" data-name="Trazado 3105" d="M197.356,12.42a13.931,13.931,0,1,0-25.012,10.47c3.391,4.605,7.323,8.813,11.045,13.239a7.647,7.647,0,0,0,.8-.785c3.43-3.9,6.579-7.336,9.921-11.315a13.916,13.916,0,0,0,3.242-11.61" transform="translate(-65.982 -0.295)" fill="#1cb6ed"/>
        <path id="Trazado_3106" data-name="Trazado 3106" d="M196.907,13.364A12.716,12.716,0,1,0,174.2,23.016c3.079,4.245,6.648,8.124,10.026,12.2a7.083,7.083,0,0,0,.731-.723c3.114-3.6,5.971-6.763,9.006-10.431a12.968,12.968,0,0,0,2.943-10.7" transform="translate(-66.802 -1.016)" fill="#062e6b"/>
        <path id="Trazado_3107" data-name="Trazado 3107" d="M191.215,27.5V27.38c0-.89,0-1.779,0-2.669,0-.083.03-.112.1-.142a4.086,4.086,0,0,0,2.645-3.334,3.987,3.987,0,0,0-1.108-3.451,4.053,4.053,0,0,0-3.047-1.306c-2.272-.007-4.543,0-6.815,0-.147,0-.147,0-.147-.146V13.812c0-.04,0-.079,0-.129.045,0,.081-.006.116-.006,2.318,0,4.638-.019,6.956.006a6.76,6.76,0,0,1,4.736,1.934,6.986,6.986,0,0,1,.119,9.973,6.935,6.935,0,0,1-3.463,1.9.715.715,0,0,1-.092.01" transform="translate(-71.125 -5.317)" fill="#1cb6ed"/>
        <path id="Trazado_3108" data-name="Trazado 3108" d="M185.638,25.618h-2.789c0-.042,0-.075,0-.107,0-.86,0-1.719,0-2.578,0-.094.027-.117.119-.117q3.423,0,6.845,0a1.4,1.4,0,0,1,1.392,1.648,1.477,1.477,0,0,1-1.2,1.128,2.1,2.1,0,0,1-.29.021c-.382,0-.765,0-1.147,0h-.119v8.372h-2.8Z" transform="translate(-71.124 -8.875)" fill="#fff"/>
      </g>
    </g>
  </g>
</svg>
