<svg width="308" height="64" viewBox="0 0 308 64" fill="none" xmlns="http://www.w3.org/2000/svg">
<mask id="mask0_144_727" style="mask-type:luminance" maskUnits="userSpaceOnUse" x="154" y="19" width="154" height="35">
<path d="M308 19.255H154V53.488H308V19.255Z" fill="white"/>
</mask>
<g mask="url(#mask0_144_727)">
<path d="M168.106 26.308C168.106 27.7029 167.692 29.0666 166.917 30.2264C166.142 31.3863 165.041 32.2903 163.752 32.8241C162.463 33.3579 161.045 33.4976 159.677 33.2255C158.309 32.9533 157.052 32.2816 156.066 31.2952C155.079 30.3088 154.408 29.0521 154.136 27.684C153.863 26.3158 154.003 24.8977 154.537 23.6089C155.071 22.3202 155.975 21.2186 157.135 20.4436C158.294 19.6686 159.658 19.255 161.053 19.255C162.924 19.255 164.718 19.9981 166.04 21.3208C167.363 22.6435 168.106 24.4374 168.106 26.308Z" fill="#1F63A9"/>
<path d="M189.342 26.308C189.342 27.7029 188.929 29.0666 188.154 30.2264C187.379 31.3863 186.277 32.2903 184.988 32.8241C183.7 33.3579 182.282 33.4976 180.913 33.2255C179.545 32.9533 178.288 32.2816 177.302 31.2952C176.316 30.3088 175.644 29.0521 175.372 27.684C175.1 26.3158 175.239 24.8977 175.773 23.6089C176.307 22.3202 177.211 21.2186 178.371 20.4436C179.531 19.6686 180.894 19.255 182.289 19.255C184.16 19.255 185.954 19.9981 187.277 21.3208C188.599 22.6435 189.342 24.4374 189.342 26.308Z" fill="#1F63A9"/>
<path d="M189.346 46.435C189.346 47.8299 188.933 49.1936 188.158 50.3534C187.383 51.5133 186.281 52.4173 184.992 52.9511C183.704 53.4849 182.285 53.6246 180.917 53.3525C179.549 53.0803 178.292 52.4086 177.306 51.4222C176.32 50.4358 175.648 49.1791 175.376 47.811C175.104 46.4428 175.243 45.0247 175.777 43.7359C176.311 42.4472 177.215 41.3456 178.375 40.5706C179.535 39.7956 180.898 39.382 182.293 39.382C184.164 39.382 185.958 40.1251 187.28 41.4478C188.603 42.7705 189.346 44.5644 189.346 46.435Z" fill="#1F63A9"/>
<path d="M168.11 46.435C168.11 47.8299 167.696 49.1936 166.921 50.3534C166.146 51.5133 165.045 52.4173 163.756 52.9511C162.467 53.4849 161.049 53.6246 159.681 53.3525C158.313 53.0803 157.056 52.4086 156.07 51.4222C155.083 50.4358 154.412 49.1791 154.139 47.811C153.867 46.4428 154.007 45.0247 154.541 43.7359C155.075 42.4472 155.979 41.3456 157.138 40.5706C158.298 39.7956 159.662 39.382 161.057 39.382C162.927 39.382 164.721 40.1251 166.044 41.4478C167.367 42.7705 168.11 44.5644 168.11 46.435Z" fill="#1F63A9"/>
<path d="M196.276 36.457C196.62 33.095 196.826 29.395 196.894 25.357L192.478 25.471L192.53 24.319C192.557 23.7037 192.578 23.029 192.592 22.295C194.556 22.309 196.845 22.316 199.459 22.316L202.021 22.306H204.511L205.86 22.295L205.798 23.312C205.77 23.8567 205.751 24.3073 205.741 24.664C205.731 25.0207 205.726 25.2897 205.726 25.471C204.247 25.395 203.027 25.357 202.067 25.357H201.341C201.237 26.579 201.157 27.708 201.101 28.744C201.024 30.2287 200.965 31.67 200.923 33.068C200.881 34.466 200.86 35.5967 200.86 36.46C199.726 36.446 198.993 36.439 198.66 36.439C198.362 36.439 197.567 36.446 196.275 36.46" fill="#1F63A9"/>
<path d="M206.59 36.457C206.723 35.2397 206.827 34.1433 206.902 33.168C206.977 32.1927 207.043 31.0617 207.102 29.775C207.157 28.4883 207.199 27.1307 207.227 25.702C207.255 24.2733 207.269 23.137 207.269 22.293C208.136 22.3137 208.836 22.324 209.369 22.324C209.922 22.324 210.597 22.3083 211.392 22.277C212.187 22.2457 212.962 22.23 213.716 22.23C214.601 22.23 215.39 22.2633 216.082 22.33C216.565 22.3706 217.04 22.4714 217.498 22.63C217.881 22.7604 218.243 22.9475 218.571 23.185C218.849 23.3904 219.094 23.6373 219.298 23.917C219.5 24.2058 219.653 24.5266 219.749 24.866C219.858 25.2452 219.913 25.6383 219.91 26.033C219.913 26.4725 219.854 26.9102 219.734 27.333C219.614 27.7418 219.427 28.1275 219.179 28.474C218.92 28.8373 218.596 29.1504 218.225 29.398C217.717 29.7195 217.176 29.9856 216.611 30.192L217.151 31.51C217.303 31.8767 217.466 32.2503 217.639 32.631L219.03 35.671C219.092 35.8043 219.203 36.0637 219.362 36.449C218.221 36.435 217.455 36.428 217.062 36.428C216.565 36.428 215.749 36.435 214.615 36.449C214.504 36.089 214.304 35.4223 214.015 34.449C213.897 34.041 213.797 33.7263 213.715 33.505C213.548 33.0137 213.302 32.3253 212.977 31.44L211.907 28.503C212.27 28.5699 212.638 28.6034 213.007 28.603C213.475 28.6094 213.941 28.5322 214.382 28.375C214.761 28.2474 215.089 28 215.316 27.67C215.52 27.3741 215.63 27.0235 215.633 26.664C215.638 26.3844 215.555 26.1103 215.395 25.881C215.205 25.6368 214.941 25.4612 214.642 25.381C214.125 25.2499 213.592 25.194 213.06 25.215C212.818 25.215 212.567 25.2203 212.308 25.231C212.049 25.2417 211.746 25.2503 211.4 25.257C211.311 26.675 211.233 28.4043 211.164 30.445C211.095 32.4857 211.051 34.4883 211.031 36.453C209.874 36.439 209.123 36.432 208.777 36.432C208.377 36.432 207.653 36.439 206.606 36.453" fill="#1F63A9"/>
<path d="M219.644 36.457L220.506 34.963L225.869 24.856L226.44 23.725C226.606 23.3917 226.839 22.9143 227.14 22.293C228.357 22.307 229.246 22.314 229.806 22.314C230.781 22.314 231.684 22.307 232.514 22.293L234.028 26.62L237.108 34.942L237.708 36.457C236.508 36.443 235.781 36.436 235.527 36.436C234.945 36.436 234.09 36.443 232.962 36.457C232.658 35.3157 232.219 33.9737 231.646 32.431H226.423C225.823 33.649 225.201 34.991 224.557 36.457C223.269 36.443 222.479 36.436 222.189 36.436C221.662 36.436 220.814 36.443 219.644 36.457ZM227.678 29.411H230.901C230.101 26.9737 229.662 25.6303 229.585 25.381C229.129 26.3963 228.742 27.2297 228.424 27.881L227.678 29.411Z" fill="#1F63A9"/>
<path d="M238.807 36.457L239.015 34.278L239.415 26.89L239.529 23.912V22.293C240.603 22.307 241.552 22.314 242.377 22.314C242.965 22.314 243.793 22.307 244.861 22.293L249.291 30.348L249.901 31.531C249.979 30.3683 250.059 28.7387 250.141 26.642C250.223 24.5453 250.263 23.0953 250.263 22.292C251.113 22.306 251.793 22.313 252.305 22.313C252.54 22.313 253.217 22.306 254.337 22.292L254.088 25.384L253.621 33.976L253.559 36.456C252.659 36.442 251.818 36.435 251.036 36.435C250.385 36.435 249.485 36.442 248.336 36.456C247.976 35.778 247.71 35.2867 247.536 34.982L245.807 32.025C245.233 31.0563 244.705 30.129 244.221 29.243C243.903 28.6823 243.575 28.0663 243.237 27.395L243.013 32.316L242.907 36.458C242.05 36.444 241.397 36.437 240.948 36.437C240.568 36.437 239.856 36.444 238.813 36.458" fill="#1F63A9"/>
<path d="M256.117 36.242C256.027 34.7687 255.923 33.5893 255.806 32.704C256.472 33.0121 257.166 33.2536 257.88 33.425C258.404 33.5492 258.941 33.6163 259.48 33.625C259.973 33.6464 260.466 33.5562 260.92 33.361C261.077 33.2994 261.213 33.1918 261.308 33.0521C261.403 32.9124 261.455 32.7472 261.455 32.578C261.455 32.4636 261.438 32.3499 261.403 32.241C261.355 32.1105 261.287 31.9881 261.203 31.878C261.08 31.7164 260.941 31.5685 260.787 31.437L258.832 29.737C258.374 29.3497 258.055 29.0697 257.875 28.897C257.555 28.5993 257.267 28.2688 257.017 27.911C256.821 27.626 256.67 27.3127 256.57 26.982C256.475 26.6572 256.428 26.3204 256.43 25.982C256.43 25.5587 256.505 25.1388 256.653 24.742C256.807 24.327 257.034 23.9425 257.322 23.606C257.653 23.2272 258.054 22.9171 258.505 22.693C258.999 22.4359 259.532 22.2591 260.082 22.169C260.654 22.0746 261.234 22.0277 261.815 22.029C263.098 22.0393 264.376 22.1733 265.634 22.429C265.654 22.9063 265.679 23.344 265.707 23.742C265.735 24.14 265.801 24.837 265.907 25.833C265.344 25.5997 264.76 25.4209 264.164 25.299C263.716 25.2073 263.261 25.1571 262.805 25.149C262.338 25.1316 261.875 25.2349 261.461 25.449C261.311 25.5113 261.181 25.6143 261.087 25.7463C260.993 25.8783 260.937 26.0341 260.927 26.196C260.927 26.3335 260.956 26.4695 261.01 26.596C261.089 26.7648 261.194 26.9205 261.321 27.058C261.506 27.2667 261.706 27.4609 261.921 27.639C262.17 27.8503 262.561 28.1633 263.094 28.578L263.841 29.17C264.09 29.3757 264.329 29.594 264.557 29.824C264.796 30.0603 265.017 30.3133 265.221 30.581C265.386 30.7951 265.53 31.0245 265.652 31.266C265.749 31.4663 265.824 31.6769 265.875 31.894C265.925 32.1172 265.949 32.3453 265.948 32.574C265.946 33.2026 265.789 33.8211 265.49 34.3743C265.192 34.9274 264.761 35.398 264.236 35.744C263.688 36.1076 263.078 36.3663 262.436 36.507C261.756 36.6551 261.062 36.7282 260.366 36.725C258.939 36.6913 257.519 36.5279 256.122 36.237" fill="#1F63A9"/>
<path d="M271.146 36.457C271.49 33.095 271.696 29.395 271.764 25.357L267.346 25.468L267.398 24.316C267.426 23.7007 267.446 23.026 267.46 22.292C269.424 22.306 271.713 22.313 274.327 22.313L276.889 22.303H279.379L280.727 22.292L280.665 23.309C280.637 23.8537 280.618 24.3043 280.608 24.661C280.598 25.0177 280.593 25.2867 280.593 25.468C279.114 25.392 277.894 25.354 276.934 25.354H276.208C276.104 26.576 276.024 27.705 275.968 28.741C275.891 30.2257 275.832 31.667 275.79 33.065C275.748 34.463 275.727 35.5937 275.727 36.457C274.593 36.443 273.86 36.436 273.527 36.436C273.229 36.436 272.434 36.443 271.142 36.457" fill="#1F63A9"/>
<path d="M281.467 36.457C281.64 34.6723 281.767 33.178 281.847 31.974C281.927 30.77 282.006 29.17 282.086 27.174C282.166 25.178 282.206 23.855 282.206 23.205L282.195 22.292C283.827 22.306 285.801 22.313 288.119 22.313C290.256 22.313 292.141 22.306 293.773 22.292L293.752 22.633C293.745 22.7157 293.728 23.0157 293.7 23.533L293.638 24.66C293.624 24.9013 293.617 25.146 293.617 25.394C292.283 25.3387 291.163 25.311 290.255 25.311C289.259 25.311 288.586 25.3127 288.237 25.316C287.887 25.3193 287.343 25.335 286.603 25.363L286.477 27.75C287.293 27.7707 288.245 27.781 289.331 27.781C289.719 27.781 290.75 27.7567 292.424 27.708C292.357 28.5933 292.29 29.6483 292.224 30.873C291.027 30.859 290.107 30.852 289.465 30.852C288.511 30.852 287.444 30.8763 286.265 30.925L286.142 33.446H287.335C287.687 33.446 288.416 33.4357 289.523 33.415L291.67 33.363C291.988 33.3563 292.521 33.3287 293.27 33.28C293.186 34.304 293.117 35.3623 293.062 36.455C291.374 36.441 289.523 36.434 287.511 36.434L282.945 36.445L281.467 36.457Z" fill="#1F63A9"/>
<path d="M307.751 33.001C307.668 33.4077 307.568 33.9743 307.451 34.701C307.334 35.4277 307.254 35.9913 307.212 36.392C305.9 36.5996 304.576 36.7105 303.248 36.724C302.191 36.7327 301.137 36.5912 300.12 36.304C299.153 36.0226 298.25 35.5537 297.464 34.924C296.699 34.3376 296.102 33.5588 295.736 32.667C295.379 31.7407 295.203 30.7546 295.217 29.762C295.198 28.5981 295.437 27.4446 295.917 26.384C296.373 25.3983 297.064 24.5398 297.93 23.884C298.788 23.2249 299.766 22.7386 300.809 22.452C301.864 22.1636 302.952 22.0186 304.046 22.021C305.321 22.0458 306.592 22.1776 307.846 22.415L307.867 23.287C307.881 23.667 307.902 24.0857 307.929 24.543L308.002 25.726C307.193 25.5327 306.537 25.4013 306.036 25.332C305.572 25.2667 305.104 25.2333 304.636 25.232C303.763 25.2181 302.9 25.4099 302.115 25.792C301.382 26.1528 300.769 26.7187 300.351 27.421C299.922 28.1349 299.699 28.954 299.708 29.787C299.688 30.5013 299.875 31.2062 300.248 31.816C300.605 32.3772 301.109 32.8293 301.706 33.123C302.415 33.4517 303.192 33.6099 303.973 33.585C304.508 33.5816 305.043 33.5419 305.573 33.466C306.306 33.3539 307.032 33.1996 307.747 33.004" fill="#1F63A9"/>
<path d="M197.015 48.51L197.078 47.544L197.163 45.544L197.191 44.618C196.676 44.618 196.224 44.6277 195.837 44.647C195.85 44.479 195.857 44.33 195.859 44.202C196.392 44.202 196.969 44.202 197.589 44.202H198.599H199.136C199.121 44.3887 199.114 44.537 199.114 44.647C198.788 44.6277 198.427 44.618 198.031 44.618H197.772L197.706 46.018L197.64 47.987V48.514L197.34 48.508L197.018 48.514" fill="#231F20"/>
<path d="M199.503 48.51L199.566 47.66L199.638 46.09L199.67 44.77C199.674 44.5033 199.676 44.3127 199.676 44.198C199.929 44.202 200.138 44.204 200.304 44.204C200.447 44.204 200.606 44.202 200.78 44.198C200.954 44.198 201.097 44.191 201.208 44.191C201.387 44.1896 201.567 44.2033 201.744 44.232C201.902 44.258 202.05 44.3226 202.177 44.42C202.297 44.5091 202.393 44.6262 202.458 44.761C202.52 44.8996 202.551 45.0502 202.548 45.202C202.549 45.3513 202.525 45.4998 202.477 45.641C202.43 45.7749 202.36 45.8993 202.269 46.008C202.178 46.117 202.067 46.2079 201.942 46.276C201.827 46.335 201.705 46.3784 201.579 46.405C201.482 46.4263 201.349 46.4463 201.179 46.465L201.735 47.353L202.31 48.234C202.35 48.2953 202.408 48.387 202.484 48.509C202.321 48.505 202.212 48.503 202.157 48.503C202.102 48.503 201.99 48.505 201.821 48.509L201.593 48.076C201.547 47.992 201.5 47.908 201.454 47.826L201.302 47.561L200.587 46.396C200.558 46.35 200.509 46.269 200.441 46.153C200.582 46.1803 200.726 46.195 200.87 46.197C201.066 46.201 201.26 46.167 201.443 46.097C201.607 46.0345 201.748 45.921 201.843 45.773C201.937 45.6277 201.986 45.458 201.984 45.285C201.985 45.1931 201.97 45.1018 201.94 45.015C201.912 44.9342 201.864 44.8619 201.8 44.805C201.744 44.7537 201.68 44.7122 201.611 44.682C201.534 44.6532 201.453 44.634 201.371 44.625C201.268 44.6122 201.164 44.6059 201.06 44.606L200.612 44.613C200.418 44.613 200.295 44.613 200.243 44.613C200.176 46.0283 200.136 47.3283 200.123 48.513L199.813 48.507C199.766 48.507 199.664 48.509 199.506 48.513" fill="#231F20"/>
<path d="M202.595 48.51L203.17 47.423L204.635 44.558L204.806 44.198H205.173H205.543L206.089 45.745L207.099 48.509L206.799 48.503C206.742 48.503 206.629 48.503 206.461 48.509C206.404 48.309 206.31 48.0163 206.178 47.631C206.046 47.2457 205.935 46.935 205.845 46.699H204.119L203.661 47.643L203.261 48.508L202.937 48.502L202.597 48.508M204.308 46.281H205.728L205.141 44.61L204.308 46.281Z" fill="#231F20"/>
<path d="M207.668 48.51L207.731 47.632L207.839 45.067L207.852 44.567C207.852 44.409 207.852 44.286 207.852 44.198H208.246H208.609L208.954 44.754L211.042 47.903L211.174 44.203H211.455H211.734L211.665 45.308L211.58 47.257L211.543 48.514C211.418 48.51 211.296 48.508 211.177 48.508C211.068 48.508 210.94 48.51 210.795 48.514L210.504 48.05L208.365 44.844C208.356 44.962 208.348 45.144 208.34 45.4L208.252 47.633L208.233 48.514C208.096 48.51 208.005 48.508 207.958 48.508L207.667 48.514" fill="#231F20"/>
<path d="M212.377 48.396C212.368 48.196 212.355 48.0223 212.336 47.875C212.528 47.9692 212.729 48.0439 212.936 48.098C213.104 48.14 213.277 48.1619 213.45 48.163C213.6 48.1645 213.75 48.1373 213.89 48.083C214.012 48.0395 214.119 47.9605 214.196 47.856C214.264 47.757 214.299 47.6391 214.296 47.519C214.296 47.4485 214.284 47.3785 214.261 47.312C214.234 47.2399 214.197 47.1723 214.149 47.112C214.067 47.0153 213.977 46.9257 213.88 46.844C213.753 46.7313 213.572 46.576 213.338 46.378L213.104 46.178C213.015 46.102 212.935 46.0267 212.864 45.952C212.799 45.8849 212.739 45.8131 212.684 45.737C212.641 45.6785 212.604 45.6163 212.572 45.551C212.544 45.4917 212.523 45.4292 212.51 45.365C212.495 45.296 212.488 45.2256 212.488 45.155C212.488 44.9747 212.539 44.798 212.636 44.646C212.745 44.4792 212.901 44.3476 213.083 44.267C213.332 44.1627 213.601 44.1142 213.871 44.125C214.161 44.1311 214.449 44.1629 214.733 44.22C214.733 44.356 214.752 44.52 214.777 44.72C214.496 44.6139 214.199 44.5561 213.899 44.549C213.742 44.5438 213.587 44.5746 213.444 44.639C213.333 44.6894 213.237 44.7684 213.166 44.868C213.106 44.9518 213.073 45.0519 213.071 45.155C213.07 45.2732 213.105 45.3888 213.171 45.487C213.224 45.5666 213.284 45.6413 213.351 45.71C213.446 45.806 213.546 45.8971 213.651 45.983L214.012 46.283C214.221 46.4557 214.374 46.589 214.47 46.683C214.554 46.7641 214.63 46.8525 214.699 46.947C214.755 47.0276 214.8 47.1158 214.832 47.209C214.864 47.3058 214.88 47.4071 214.879 47.509C214.881 47.6708 214.843 47.8307 214.77 47.975C214.698 48.1166 214.59 48.2369 214.457 48.324C214.319 48.4155 214.165 48.481 214.004 48.517C213.833 48.5555 213.658 48.5746 213.483 48.574C213.332 48.5736 213.182 48.5626 213.033 48.541C212.81 48.5039 212.589 48.4538 212.371 48.391" fill="#231F20"/>
<path d="M215.055 48.51L215.63 47.423L217.095 44.558L217.266 44.198H217.633H218.003L218.549 45.745L219.559 48.509L219.259 48.503C219.202 48.503 219.089 48.503 218.921 48.509C218.864 48.309 218.77 48.0163 218.638 47.631C218.506 47.2457 218.395 46.935 218.305 46.699H216.579L216.122 47.643L215.722 48.508L215.398 48.502L215.058 48.508M216.769 46.281H218.189L217.602 44.61L216.769 46.281Z" fill="#231F20"/>
<path d="M223.473 47.957C223.444 48.1097 223.417 48.2763 223.394 48.457C223.019 48.5368 222.637 48.579 222.254 48.583C221.951 48.5837 221.65 48.5361 221.363 48.442C221.085 48.3535 220.83 48.2054 220.616 48.008C220.408 47.818 220.249 47.5806 220.153 47.316C220.055 47.0424 220.006 46.7536 220.008 46.463C220.007 46.1434 220.062 45.8261 220.169 45.525C220.269 45.235 220.436 44.9726 220.657 44.759C220.882 44.5452 221.151 44.3843 221.446 44.288C221.758 44.1834 222.085 44.1307 222.414 44.132C222.778 44.1323 223.141 44.1705 223.498 44.246C223.498 44.3527 223.51 44.516 223.533 44.736C223.337 44.6734 223.136 44.6252 222.933 44.592C222.778 44.5687 222.622 44.5567 222.466 44.556C222.221 44.5553 221.978 44.5945 221.746 44.672C221.518 44.7479 221.309 44.8736 221.136 45.04C220.956 45.2138 220.817 45.4261 220.73 45.661C220.637 45.9056 220.589 46.1652 220.59 46.427C220.589 46.665 220.627 46.9015 220.703 47.127C220.771 47.3383 220.889 47.5303 221.047 47.687C221.204 47.8413 221.392 47.9609 221.598 48.038C221.827 48.1221 222.07 48.1635 222.315 48.16C222.708 48.15 223.097 48.0826 223.471 47.96" fill="#231F20"/>
<path d="M227.541 47.957C227.511 48.1097 227.485 48.2763 227.462 48.457C227.087 48.5368 226.705 48.579 226.322 48.583C226.02 48.5837 225.719 48.5361 225.431 48.442C225.154 48.3535 224.899 48.2054 224.684 48.008C224.476 47.8179 224.318 47.5806 224.221 47.316C224.123 47.0424 224.074 46.7536 224.076 46.463C224.075 46.1434 224.13 45.826 224.237 45.525C224.338 45.2349 224.505 44.9725 224.725 44.759C224.95 44.5451 225.22 44.3842 225.515 44.288C225.827 44.1834 226.154 44.1307 226.483 44.132C226.848 44.1323 227.211 44.1705 227.567 44.246C227.567 44.3527 227.579 44.516 227.602 44.736C227.406 44.6734 227.206 44.6253 227.002 44.592C226.848 44.5687 226.692 44.5567 226.535 44.556C226.291 44.5553 226.047 44.5945 225.815 44.672C225.587 44.748 225.379 44.8737 225.206 45.04C225.026 45.2137 224.887 45.426 224.8 45.661C224.707 45.9055 224.659 46.1652 224.66 46.427C224.659 46.6649 224.697 46.9013 224.772 47.127C224.841 47.3383 224.959 47.5303 225.116 47.687C225.273 47.8414 225.461 47.961 225.667 48.038C225.897 48.1221 226.14 48.1635 226.384 48.16C226.777 48.15 227.167 48.0826 227.54 47.96" fill="#231F20"/>
<path d="M228.267 48.51L228.314 47.783L228.38 46.27L228.424 44.779C228.424 44.693 228.424 44.606 228.424 44.52V44.198H228.75H229.056C229.018 44.724 228.989 45.2733 228.971 45.846C228.937 46.764 228.913 47.6517 228.899 48.509L228.599 48.503L228.264 48.509" fill="#231F20"/>
<path d="M232.177 44.129C232.478 44.1274 232.778 44.1733 233.065 44.265C233.343 44.3543 233.597 44.5078 233.806 44.713C234.01 44.9077 234.167 45.1473 234.263 45.413C234.355 45.6843 234.402 45.9693 234.399 46.256C234.4 46.5739 234.348 46.8898 234.247 47.191C234.153 47.4779 233.993 47.7386 233.78 47.952C233.56 48.1658 233.294 48.3263 233.003 48.421C232.69 48.5259 232.363 48.5787 232.033 48.577C231.718 48.5781 231.406 48.5302 231.106 48.435C230.824 48.3481 230.566 48.1987 230.35 47.998C230.145 47.805 229.99 47.5647 229.899 47.298C229.805 47.0252 229.758 46.7385 229.76 46.45C229.759 46.1272 229.815 45.8069 229.927 45.504C230.031 45.2141 230.2 44.952 230.421 44.738C230.645 44.5257 230.915 44.3671 231.21 44.274C231.522 44.1722 231.849 44.1209 232.178 44.122M232.143 44.545C231.899 44.5436 231.656 44.5849 231.426 44.667C231.201 44.7477 230.999 44.8814 230.837 45.057C230.668 45.2377 230.541 45.453 230.464 45.688C230.382 45.932 230.341 46.1877 230.342 46.445C230.341 46.6835 230.382 46.9203 230.462 47.145C230.534 47.3569 230.655 47.5487 230.816 47.705C230.976 47.8569 231.168 47.9708 231.378 48.038C231.599 48.111 231.83 48.1478 232.063 48.147C232.301 48.148 232.538 48.1084 232.763 48.03C232.982 47.9545 233.179 47.8272 233.338 47.659C233.502 47.4841 233.625 47.2741 233.697 47.045C233.775 46.8014 233.815 46.5469 233.814 46.291C233.815 46.0497 233.779 45.8096 233.708 45.579C233.643 45.362 233.527 45.1636 233.37 45C233.217 44.8412 233.028 44.7215 232.819 44.651C232.601 44.5775 232.373 44.5407 232.143 44.542" fill="#231F20"/>
<path d="M235.083 48.51L235.146 47.632L235.254 45.067L235.267 44.567C235.267 44.409 235.267 44.286 235.267 44.198H235.661H236.024L236.368 44.754L238.456 47.903L238.588 44.203H238.87H239.148L239.079 45.308L238.994 47.257L238.956 48.514C238.832 48.51 238.71 48.508 238.59 48.508C238.481 48.508 238.353 48.508 238.208 48.514L237.917 48.05L235.777 44.844C235.769 44.962 235.761 45.1473 235.752 45.4L235.664 47.633L235.645 48.514C235.508 48.51 235.417 48.508 235.37 48.508L235.079 48.514" fill="#231F20"/>
<path d="M239.965 48.51L240.044 47.323L240.133 45.102L240.142 44.619C240.142 44.497 240.142 44.357 240.142 44.199C240.617 44.199 241.105 44.199 241.604 44.199H242.611H242.933C242.918 44.345 242.909 44.493 242.905 44.641L242.624 44.625C242.557 44.621 242.438 44.618 242.265 44.616C242.092 44.614 241.926 44.614 241.765 44.616C241.268 44.616 240.922 44.619 240.726 44.625L240.669 46.103C240.994 46.109 241.284 46.112 241.541 46.112C241.821 46.112 242.188 46.1077 242.641 46.099C242.626 46.2463 242.617 46.3917 242.613 46.535L241.526 46.526C241.313 46.526 241.017 46.5303 240.638 46.539L240.581 48.099H240.91C241.507 48.099 241.902 48.097 242.097 48.093C242.292 48.089 242.52 48.0797 242.781 48.065C242.766 48.221 242.756 48.365 242.752 48.51C242.245 48.506 241.816 48.504 241.466 48.504L239.965 48.51Z" fill="#231F20"/>
<path d="M243.449 48.396C243.44 48.196 243.427 48.022 243.408 47.875C243.6 47.9693 243.801 48.044 244.008 48.098C244.176 48.1401 244.348 48.1619 244.521 48.163C244.672 48.1646 244.822 48.1374 244.962 48.083C245.085 48.0395 245.192 47.9605 245.269 47.856C245.337 47.7569 245.372 47.639 245.369 47.519C245.37 47.4485 245.358 47.3784 245.334 47.312C245.308 47.2398 245.27 47.1723 245.222 47.112C245.141 47.0153 245.051 46.9256 244.954 46.844C244.827 46.7313 244.646 46.576 244.412 46.378L244.178 46.178C244.09 46.102 244.01 46.0267 243.938 45.952C243.873 45.8848 243.813 45.813 243.758 45.737C243.716 45.6783 243.678 45.6161 243.646 45.551C243.619 45.4916 243.598 45.4291 243.585 45.365C243.57 45.296 243.563 45.2256 243.563 45.155C243.563 44.9747 243.614 44.7981 243.711 44.646C243.821 44.4789 243.976 44.3473 244.159 44.267C244.408 44.1626 244.677 44.1141 244.947 44.125C245.237 44.1311 245.525 44.1629 245.809 44.22C245.813 44.3533 245.828 44.52 245.853 44.72C245.572 44.6139 245.275 44.556 244.975 44.549C244.819 44.5439 244.663 44.5747 244.52 44.639C244.409 44.6895 244.313 44.7685 244.242 44.868C244.182 44.9519 244.15 45.052 244.148 45.155C244.148 45.2132 244.156 45.2712 244.173 45.327C244.191 45.3838 244.216 45.4377 244.249 45.487C244.302 45.5666 244.363 45.6412 244.429 45.71C244.501 45.785 244.6 45.876 244.729 45.983L245.09 46.283C245.3 46.4557 245.452 46.589 245.548 46.683C245.632 46.7642 245.708 46.8525 245.776 46.947C245.833 47.0274 245.878 47.1156 245.909 47.209C245.941 47.3058 245.957 47.4071 245.956 47.509C245.958 47.6708 245.92 47.8307 245.847 47.975C245.775 48.1166 245.667 48.2369 245.534 48.324C245.396 48.4155 245.243 48.4809 245.081 48.517C244.91 48.5556 244.735 48.5747 244.559 48.574C244.409 48.5736 244.258 48.5626 244.109 48.541C243.886 48.5038 243.665 48.4537 243.448 48.391" fill="#231F20"/>
<path d="M249.163 48.51C249.219 47.8867 249.261 47.257 249.291 46.621L247.898 44.199H248.235H248.553C248.653 44.409 248.807 44.6987 249.015 45.068C249.224 45.4373 249.421 45.7997 249.607 46.155L250.707 44.439L250.849 44.199H251.184H251.5L250.24 46.062L249.845 46.662L249.783 48.102L249.777 48.513C249.627 48.513 249.524 48.507 249.467 48.507C249.41 48.507 249.307 48.507 249.157 48.513" fill="#231F20"/>
<path d="M254.254 48.51L254.317 47.544L254.402 45.544L254.43 44.618C253.915 44.618 253.464 44.6277 253.076 44.647C253.088 44.479 253.096 44.33 253.098 44.202C253.632 44.202 254.208 44.202 254.828 44.202H255.838H256.375C256.361 44.3887 256.353 44.537 256.353 44.647C256.027 44.6277 255.666 44.618 255.27 44.618H255.011L254.945 46.018L254.876 47.983V48.51L254.576 48.504L254.254 48.51Z" fill="#231F20"/>
<path d="M256.746 48.51L256.825 47.323L256.914 45.102L256.923 44.619C256.923 44.497 256.923 44.357 256.923 44.199C257.398 44.199 257.886 44.199 258.385 44.199H259.392H259.714C259.699 44.345 259.69 44.493 259.686 44.641L259.413 44.625C259.346 44.621 259.227 44.618 259.054 44.616C258.881 44.614 258.715 44.614 258.554 44.616C258.057 44.616 257.711 44.619 257.515 44.625L257.458 46.103C257.783 46.109 258.073 46.112 258.33 46.112C258.61 46.112 258.977 46.1077 259.43 46.099C259.415 46.2463 259.406 46.3917 259.402 46.535L258.313 46.523C258.1 46.523 257.804 46.5273 257.425 46.536L257.368 48.096H257.697C258.294 48.096 258.689 48.094 258.884 48.09C259.079 48.086 259.307 48.0767 259.568 48.062C259.553 48.218 259.543 48.362 259.539 48.507C259.032 48.503 258.603 48.501 258.253 48.501L256.746 48.51Z" fill="#231F20"/>
<path d="M263.748 47.957C263.718 48.1097 263.692 48.2763 263.669 48.457C263.294 48.5368 262.913 48.579 262.529 48.583C262.227 48.5837 261.926 48.5361 261.638 48.442C261.361 48.3535 261.106 48.2054 260.891 48.008C260.683 47.818 260.525 47.5806 260.428 47.316C260.33 47.0424 260.281 46.7536 260.283 46.463C260.282 46.1434 260.337 45.826 260.444 45.525C260.545 45.2349 260.712 44.9725 260.932 44.759C261.157 44.5452 261.426 44.3843 261.721 44.288C262.033 44.1834 262.36 44.1307 262.689 44.132C263.053 44.1323 263.416 44.1705 263.772 44.246C263.772 44.3527 263.784 44.516 263.807 44.736C263.611 44.6735 263.41 44.6253 263.207 44.592C263.053 44.5687 262.897 44.5567 262.74 44.556C262.496 44.5553 262.252 44.5945 262.02 44.672C261.792 44.7478 261.584 44.8735 261.41 45.04C261.23 45.2137 261.091 45.426 261.004 45.661C260.911 45.9055 260.863 46.1652 260.863 46.427C260.862 46.6649 260.9 46.9014 260.975 47.127C261.044 47.3383 261.162 47.5303 261.319 47.687C261.477 47.8414 261.665 47.961 261.871 48.038C262.101 48.1221 262.344 48.1635 262.588 48.16C262.981 48.15 263.371 48.0826 263.744 47.96" fill="#231F20"/>
<path d="M264.472 48.51L264.535 47.632L264.643 45.067L264.656 44.567C264.656 44.409 264.656 44.286 264.656 44.198H265.05H265.413L265.757 44.754L267.845 47.903L267.977 44.203H268.259H268.537L268.468 45.308L268.383 47.257L268.345 48.514C268.221 48.51 268.099 48.508 267.979 48.508C267.87 48.508 267.742 48.508 267.597 48.514L267.306 48.05L265.166 44.844C265.158 44.962 265.149 45.1473 265.141 45.4L265.053 47.633L265.034 48.514C264.897 48.51 264.805 48.508 264.759 48.508L264.468 48.514" fill="#231F20"/>
<path d="M271.656 44.129C271.958 44.1274 272.257 44.1733 272.544 44.265C272.823 44.3544 273.076 44.5079 273.284 44.713C273.489 44.9075 273.646 45.1472 273.741 45.413C273.834 45.6843 273.88 45.9693 273.877 46.256C273.878 46.5739 273.827 46.8898 273.725 47.191C273.632 47.4778 273.472 47.7385 273.258 47.952C273.039 48.1658 272.773 48.3263 272.481 48.421C271.865 48.6248 271.201 48.6297 270.581 48.435C270.3 48.3482 270.041 48.1988 269.825 47.998C269.62 47.8052 269.465 47.5648 269.373 47.298C269.28 47.0252 269.233 46.7385 269.234 46.45C269.233 46.1272 269.29 45.8067 269.402 45.504C269.506 45.214 269.675 44.9519 269.896 44.738C270.121 44.5257 270.391 44.3671 270.685 44.274C270.998 44.1722 271.325 44.1209 271.653 44.122M271.618 44.545C271.374 44.5436 271.132 44.5849 270.901 44.667C270.677 44.7477 270.475 44.8815 270.312 45.057C270.144 45.2377 270.016 45.453 269.939 45.688C269.858 45.932 269.817 46.1877 269.817 46.445C269.817 46.6835 269.858 46.9203 269.937 47.145C270.01 47.3569 270.131 47.5487 270.291 47.705C270.451 47.8569 270.643 47.9708 270.853 48.038C271.074 48.111 271.306 48.1478 271.538 48.147C271.777 48.1481 272.013 48.1085 272.238 48.03C272.457 47.9546 272.655 47.8273 272.813 47.659C272.978 47.4841 273.101 47.2742 273.172 47.045C273.251 46.8014 273.291 46.5469 273.289 46.291C273.29 46.0497 273.255 45.8096 273.183 45.579C273.118 45.3619 273.002 45.1635 272.845 45C272.693 44.8411 272.503 44.7213 272.294 44.651C272.077 44.5775 271.848 44.5407 271.618 44.542" fill="#231F20"/>
<path d="M274.551 48.51C274.599 47.9667 274.641 47.3027 274.675 46.518C274.709 45.7333 274.73 44.96 274.74 44.198H275.072H275.366L275.266 46.198L275.19 48.085H275.79C276.236 48.085 276.55 48.085 276.732 48.085C276.914 48.085 277.09 48.0783 277.261 48.065C277.248 48.1983 277.238 48.3467 277.23 48.51C276.751 48.506 276.329 48.504 275.963 48.504L274.551 48.51Z" fill="#231F20"/>
<path d="M280.049 44.129C280.35 44.1274 280.65 44.1733 280.937 44.265C281.215 44.3544 281.469 44.5079 281.677 44.713C281.882 44.9075 282.038 45.1472 282.134 45.413C282.227 45.6843 282.273 45.9693 282.27 46.256C282.271 46.5739 282.22 46.8898 282.118 47.191C282.024 47.4778 281.864 47.7385 281.651 47.952C281.431 48.1658 281.166 48.3263 280.874 48.421C280.258 48.6248 279.593 48.6297 278.974 48.435C278.692 48.3482 278.434 48.1988 278.218 47.998C278.012 47.8052 277.857 47.5648 277.766 47.298C277.672 47.0252 277.625 46.7385 277.627 46.45C277.626 46.1272 277.683 45.8067 277.795 45.504C277.899 45.214 278.068 44.9519 278.289 44.738C278.514 44.5257 278.783 44.3671 279.078 44.274C279.391 44.1722 279.717 44.1209 280.046 44.122M280.011 44.545C279.767 44.5436 279.524 44.5849 279.294 44.667C279.069 44.7477 278.867 44.8815 278.705 45.057C278.536 45.2377 278.409 45.453 278.332 45.688C278.251 45.932 278.209 46.1877 278.21 46.445C278.21 46.6835 278.25 46.9203 278.33 47.145C278.402 47.3569 278.524 47.5487 278.684 47.705C278.844 47.857 279.036 47.9708 279.246 48.038C279.467 48.111 279.698 48.1478 279.931 48.147C280.169 48.1481 280.406 48.1085 280.631 48.03C280.85 47.9546 281.047 47.8273 281.206 47.659C281.371 47.4841 281.493 47.2742 281.565 47.045C281.644 46.8014 281.683 46.5469 281.682 46.291C281.683 46.0497 281.647 45.8096 281.576 45.579C281.511 45.3619 281.395 45.1635 281.238 45C281.085 44.8411 280.896 44.7213 280.687 44.651C280.469 44.5775 280.241 44.5407 280.011 44.542" fill="#231F20"/>
<path d="M285.403 46.094H286.243H286.943C286.895 46.7233 286.862 47.4833 286.843 48.374C286.307 48.4986 285.759 48.5673 285.208 48.579C284.883 48.5802 284.56 48.5364 284.247 48.449C283.963 48.3743 283.699 48.2396 283.472 48.054C283.257 47.8715 283.094 47.6365 282.997 47.372C282.89 47.0907 282.836 46.792 282.837 46.491C282.835 46.1498 282.903 45.8117 283.037 45.498C283.163 45.1979 283.356 44.9304 283.601 44.716C283.838 44.5082 284.117 44.354 284.419 44.264C284.746 44.1702 285.085 44.1243 285.426 44.128C285.881 44.1338 286.334 44.1877 286.778 44.289C286.783 44.447 286.793 44.6177 286.81 44.801C286.56 44.7162 286.305 44.6493 286.046 44.601C285.85 44.5659 285.651 44.5475 285.452 44.546C285.176 44.5446 284.903 44.5878 284.641 44.674C284.394 44.753 284.169 44.8867 283.981 45.065C283.793 45.2475 283.651 45.471 283.564 45.718C283.47 45.9742 283.422 46.245 283.422 46.518C283.42 46.7539 283.459 46.9883 283.537 47.211C283.606 47.4145 283.726 47.5968 283.886 47.74C284.052 47.8826 284.246 47.9895 284.456 48.054C284.692 48.1285 284.939 48.1653 285.187 48.163C285.358 48.1611 285.529 48.148 285.699 48.124C285.902 48.0964 286.103 48.0516 286.299 47.99L286.362 46.496H286.062C285.862 46.496 285.635 46.5013 285.38 46.512C285.393 46.3607 285.399 46.2207 285.399 46.092" fill="#231F20"/>
<path d="M287.781 48.51L287.828 47.783L287.894 46.27L287.938 44.779C287.938 44.6923 287.938 44.606 287.938 44.52V44.198H288.264H288.571C288.533 44.7247 288.505 45.2743 288.486 45.847C288.452 46.765 288.428 47.6527 288.413 48.51L288.113 48.504L287.778 48.51M288.062 43.794L288.353 42.967C288.456 42.971 288.562 42.973 288.672 42.973C288.772 42.973 288.879 42.971 288.994 42.967C288.856 43.163 288.674 43.4387 288.448 43.794C288.389 43.794 288.324 43.788 288.248 43.788C288.172 43.788 288.116 43.788 288.058 43.794" fill="#231F20"/>
<path d="M288.817 48.51L289.392 47.423L290.857 44.558L291.028 44.198H291.395H291.765L292.311 45.745L293.323 48.51L293.023 48.504C292.966 48.504 292.853 48.506 292.685 48.51C292.629 48.31 292.534 48.0173 292.402 47.632C292.27 47.2467 292.159 46.936 292.069 46.7H290.343L289.886 47.644L289.486 48.509L289.162 48.503L288.822 48.509M290.533 46.282H291.953L291.366 44.611L290.533 46.282Z" fill="#231F20"/>
<path d="M295.333 48.396C295.324 48.196 295.311 48.0223 295.292 47.875C295.484 47.9692 295.685 48.0439 295.892 48.098C296.06 48.14 296.232 48.1618 296.405 48.163C296.556 48.1646 296.705 48.1374 296.846 48.083C296.969 48.0394 297.075 47.9604 297.153 47.856C297.221 47.7569 297.256 47.639 297.253 47.519C297.254 47.4485 297.242 47.3784 297.218 47.312C297.192 47.2398 297.154 47.1723 297.106 47.112C297.024 47.0153 296.935 46.9256 296.838 46.844C296.711 46.7313 296.53 46.576 296.296 46.378L296.062 46.178C295.973 46.102 295.893 46.0267 295.822 45.952C295.757 45.8848 295.697 45.813 295.642 45.737C295.599 45.6784 295.562 45.6161 295.53 45.551C295.503 45.4916 295.482 45.4291 295.469 45.365C295.454 45.296 295.447 45.2256 295.447 45.155C295.447 44.9747 295.498 44.798 295.595 44.646C295.704 44.4791 295.859 44.3475 296.042 44.267C296.291 44.1626 296.56 44.1142 296.83 44.125C297.12 44.1311 297.408 44.1629 297.692 44.22C297.696 44.3533 297.711 44.52 297.736 44.72C297.455 44.6139 297.158 44.556 296.858 44.549C296.701 44.5439 296.546 44.5747 296.403 44.639C296.292 44.6894 296.196 44.7685 296.125 44.868C296.065 44.9517 296.032 45.0519 296.03 45.155C296.03 45.2132 296.038 45.2712 296.055 45.327C296.072 45.3838 296.098 45.4377 296.131 45.487C296.184 45.5666 296.244 45.6412 296.311 45.71C296.383 45.7847 296.483 45.8757 296.611 45.983L296.972 46.283C297.181 46.4557 297.334 46.589 297.43 46.683C297.514 46.7641 297.591 46.8524 297.659 46.947C297.716 47.0274 297.761 47.1157 297.792 47.209C297.824 47.3058 297.839 47.4071 297.839 47.509C297.841 47.6708 297.803 47.8307 297.73 47.975C297.658 48.1166 297.55 48.2369 297.417 48.324C297.279 48.4155 297.126 48.4809 296.964 48.517C296.793 48.5555 296.618 48.5746 296.443 48.574C296.292 48.5736 296.142 48.5626 295.993 48.541C295.77 48.5038 295.549 48.4537 295.332 48.391" fill="#231F20"/>
<path d="M298.516 48.51L298.541 47.926L298.865 47.932L299.157 47.926C299.148 48.016 299.143 48.096 299.141 48.166L299.125 48.51C298.987 48.506 298.89 48.504 298.833 48.504C298.775 48.504 298.67 48.506 298.516 48.51Z" fill="#231F20"/>
<path d="M299.467 48.51L300.042 47.423L301.507 44.563L301.678 44.203H302.045H302.415L302.961 45.75L303.971 48.514L303.671 48.508C303.613 48.508 303.501 48.51 303.333 48.514C303.276 48.314 303.182 48.0213 303.05 47.636C302.918 47.2507 302.807 46.94 302.717 46.704H300.991L300.534 47.648L300.134 48.513L299.81 48.507L299.47 48.513M301.181 46.286H302.601L302.014 44.615L301.181 46.286Z" fill="#231F20"/>
<path d="M304.473 48.51L304.498 47.926L304.822 47.932L305.114 47.926C305.105 48.016 305.1 48.096 305.098 48.166L305.082 48.51C304.944 48.506 304.847 48.504 304.79 48.504C304.732 48.504 304.627 48.506 304.473 48.51Z" fill="#231F20"/>
<path d="M186.112 36.343C184.812 36.299 183.165 36.226 181.867 36.102C180.402 36.0327 178.951 35.7859 177.545 35.367C176.428 35.0174 175.396 34.436 174.518 33.661C173.708 32.8798 173.106 31.9093 172.764 30.837C172.432 29.6976 172.217 28.5272 172.122 27.344C172.109 27.1298 172.084 26.9165 172.047 26.705C172.023 26.4877 171.999 26.27 171.977 26.052C171.934 25.6247 171.895 25.1967 171.859 24.768C171.788 23.882 171.74 22.993 171.727 22.105C171.727 21.857 171.716 21.61 171.709 21.363V19.444H171.635V21.363C171.628 21.61 171.621 21.857 171.617 22.104C171.604 22.993 171.557 23.881 171.485 24.767C171.451 25.195 171.411 25.623 171.367 26.051C171.345 26.269 171.322 26.4867 171.297 26.704C171.261 26.9155 171.236 27.1288 171.222 27.343C171.128 28.5262 170.913 29.6966 170.58 30.836C170.239 31.9082 169.636 32.8787 168.826 33.66C167.949 34.435 166.918 35.0163 165.8 35.366C164.395 35.7849 162.943 36.0317 161.478 36.101C160.178 36.225 158.537 36.301 157.233 36.342C157.157 36.342 155.35 36.369 155.275 36.371C155.35 36.371 157.158 36.397 157.233 36.4C158.533 36.444 160.179 36.517 161.478 36.641C162.943 36.7102 164.395 36.957 165.8 37.376C166.919 37.7258 167.951 38.3078 168.829 39.084C169.639 39.8653 170.242 40.8358 170.583 41.908C170.916 43.0474 171.131 44.2178 171.225 45.401C171.239 45.6152 171.264 45.8285 171.3 46.04C171.325 46.2573 171.348 46.475 171.37 46.693C171.414 47.1203 171.453 47.5483 171.488 47.977C171.559 48.863 171.607 49.751 171.62 50.64C171.62 50.887 171.631 51.134 171.638 51.381V53.3H171.712V51.384C171.719 51.137 171.726 50.89 171.73 50.642C171.743 49.753 171.791 48.865 171.862 47.979C171.896 47.5503 171.936 47.1223 171.98 46.695C172.002 46.477 172.026 46.2593 172.05 46.042C172.087 45.8305 172.112 45.6172 172.125 45.403C172.22 44.2198 172.435 43.0494 172.767 41.91C173.109 40.8369 173.712 39.8657 174.522 39.084C175.4 38.3088 176.432 37.7275 177.549 37.378C178.955 36.959 180.406 36.7122 181.871 36.643C183.171 36.519 184.812 36.443 186.116 36.402C186.191 36.402 187.999 36.375 188.075 36.373C187.999 36.373 186.192 36.347 186.116 36.344" fill="#231F20"/>
</g>
<mask id="mask1_144_727" style="mask-type:luminance" maskUnits="userSpaceOnUse" x="-1" y="0" width="135" height="64">
<path d="M133.808 0H-0.00195312V63.323H133.808V0Z" fill="white"/>
</mask>
<g mask="url(#mask1_144_727)">
<path d="M21.518 35.948C24.891 35.986 28.73 36.103 30.979 39.128C31.9823 40.4971 32.5009 42.1614 32.453 43.858C32.3897 45.6627 31.9254 47.4306 31.0938 49.0335C30.2622 50.6364 29.0841 52.0341 27.645 53.125C24.345 55.525 20.51 55.335 16.632 55.335H12.598L9.84705 63.323H-0.00195312L9.42005 35.948H21.518ZM14.81 48.976H17.21C17.8599 49.0032 18.5107 48.9511 19.148 48.821C20.1561 48.6744 21.0807 48.179 21.761 47.4208C22.4413 46.6627 22.8341 45.6899 22.871 44.672C22.8739 44.1266 22.6983 43.5953 22.371 43.159C21.75 42.345 20.897 42.151 19.036 42.113H17.175L14.81 48.976Z" fill="#062E6B"/>
<path d="M58.1589 35.948L61.0289 63.323H51.5289L51.2579 59.252H40.4439L37.8849 63.323H27.2559L46.2939 35.948H58.1589ZM50.4819 42.695L43.9289 53.707H50.9439L50.4819 42.695Z" fill="#062E6B"/>
<path d="M86.1921 35.949C89.5271 35.949 93.5211 35.832 96.0021 38.702C96.9504 39.8293 97.4599 41.261 97.4371 42.734C97.425 43.8128 97.1756 44.8758 96.7065 45.8474C96.2375 46.819 95.5603 47.6755 94.7231 48.356C93.0842 49.4755 91.1616 50.1076 89.1781 50.179C90.1014 50.2439 90.9879 50.5664 91.7371 51.11C92.5131 51.731 93.1721 52.777 93.1721 54.832C93.091 56.4997 92.8834 58.1588 92.5511 59.795C92.4593 60.3724 92.4075 60.9555 92.3961 61.54C92.3643 62.0428 92.4864 62.5433 92.7461 62.975C92.867 63.1 92.9963 63.2166 93.1331 63.324H83.4011C83.1953 62.8339 83.1024 62.3038 83.1291 61.773C83.1979 60.4219 83.3405 59.0756 83.5561 57.74C83.6758 57.0482 83.7403 56.348 83.7491 55.646C83.792 55.2077 83.7135 54.766 83.5221 54.3693C83.3307 53.9726 83.0339 53.6362 82.6641 53.397C81.9271 53.01 80.9971 53.087 79.3291 53.048H76.5761L73.0871 63.323H63.1221L72.5441 35.948L86.1921 35.949ZM78.6311 47.114H80.8411C83.1681 47.114 84.4861 47.114 85.4941 46.688C86.0659 46.4475 86.5583 46.0506 86.9149 45.543C87.2715 45.0354 87.4778 44.4375 87.5101 43.818C87.5155 43.3372 87.3508 42.8701 87.0451 42.499C86.2691 41.763 85.1061 41.84 83.1681 41.799H80.4531L78.6311 47.114Z" fill="#062E6B"/>
<path d="M113.916 35.948L110.697 44.827L121.283 35.948H133.807L119.151 47.503L125.083 63.324H115.118L111.473 52.544L106.941 56.267L104.576 63.324H94.6406L104.102 35.949L113.916 35.948Z" fill="#062E6B"/>
<path d="M30.5381 8.873L28.8071 14.298H22.9631L17.7711 30.758H10.4521L15.6441 14.298H9.2041L10.9341 8.873H30.5381Z" fill="#5A5B5E"/>
<path d="M37.7141 14.98L36.5231 18.545C37.4311 16.685 38.9351 14.67 41.0621 14.67C41.5043 14.6899 41.9425 14.7631 42.3671 14.888C42.5415 14.962 42.712 15.0448 42.8781 15.136L40.9781 21.057C40.8706 20.9927 40.7562 20.9407 40.6371 20.902C40.0526 20.66 39.4267 20.5337 38.7941 20.53C38.185 20.5148 37.5878 20.6999 37.0941 21.057C36.1198 21.9417 35.454 23.1149 35.1941 24.405L33.1181 30.761H25.9121L30.9611 14.982L37.7141 14.98Z" fill="#5A5B5E"/>
<path d="M59.2741 25.086C58.9621 26.047 58.6211 27.008 58.3371 28C58.0779 28.6674 57.9062 29.3655 57.8261 30.077C57.8227 30.3152 57.8813 30.5502 57.9961 30.759H50.9891L51.6131 28.465C51.2949 29.009 50.8704 29.4834 50.3651 29.86C49.114 30.8164 47.57 31.3094 45.9961 31.255C45.4851 31.255 42.6481 31.255 41.2011 29.085C40.6926 28.3154 40.4351 27.407 40.4641 26.485C40.45 25.291 40.8288 24.1256 41.5421 23.168C43.1031 21.092 45.5421 20.843 50.1101 20.719C51.0412 20.7251 51.9712 20.6528 52.8901 20.503C52.9471 20.472 54.1661 20.285 54.1661 19.293C54.1381 18.673 53.6271 18.115 52.4921 18.115C52.2921 18.115 50.2791 18.177 49.8821 19.82H42.6481C42.9545 18.6116 43.5816 17.5085 44.4631 16.627C46.5341 14.612 49.8261 14.488 52.4071 14.488C56.1521 14.488 58.3371 15.015 59.6701 16.348C60.0376 16.7416 60.3224 17.205 60.5075 17.7107C60.6927 18.2164 60.7745 18.7541 60.7481 19.292C60.6813 20.4347 60.452 21.562 60.0671 22.64L59.2741 25.086ZM51.5001 24.156C51.0751 24.249 50.6481 24.311 50.1951 24.404C49.5344 24.4765 48.8965 24.6878 48.3231 25.024C48.1023 25.1629 47.9193 25.3543 47.7905 25.5811C47.6618 25.808 47.5912 26.0632 47.5851 26.324C47.5836 26.5424 47.6425 26.7569 47.7551 26.944C47.8849 27.1598 48.0746 27.3333 48.3011 27.4434C48.5276 27.5535 48.7812 27.5954 49.0311 27.564C49.6179 27.5717 50.196 27.4219 50.7051 27.13C52.0101 26.449 52.3501 25.146 52.8611 23.813C52.4061 23.938 51.9531 24.031 51.4991 24.155" fill="#5A5B5E"/>
<path d="M72.0666 14.979L71.2436 17.459C71.5832 16.878 72.037 16.3718 72.5776 15.971C73.72 14.9878 75.1836 14.4583 76.6906 14.483C79.3006 14.514 80.7186 15.723 81.2296 16.87C81.4308 17.4046 81.5272 17.9729 81.5136 18.544C81.4212 19.744 81.1927 20.9296 80.8326 22.078L78.1086 30.758H70.7606L73.2606 22.915C73.5292 22.1935 73.7196 21.4452 73.8286 20.683C73.8485 20.5249 73.8323 20.3643 73.7811 20.2133C73.73 20.0623 73.6452 19.925 73.5332 19.8115C73.4212 19.6981 73.2849 19.6116 73.1347 19.5585C72.9844 19.5054 72.824 19.4871 72.6656 19.505C72.31 19.4994 71.9619 19.6081 71.6726 19.815C70.9336 20.3889 70.4131 21.1984 70.1976 22.109L67.4456 30.758H60.1836L65.0836 14.979H72.0666Z" fill="#5A5B5E"/>
<path d="M95.1308 19.97C95.2021 19.7924 95.2407 19.6033 95.2448 19.412C95.2422 19.2124 95.1849 19.0174 95.0791 18.8481C94.9733 18.6788 94.8231 18.5418 94.6448 18.452C94.1875 18.2251 93.6798 18.1184 93.1698 18.142C91.9788 18.142 91.1838 18.607 91.2118 19.32C91.2119 19.5285 91.2933 19.7287 91.4388 19.878C92.182 20.2859 93.0043 20.529 93.8498 20.591C95.3231 20.7394 96.7718 21.0727 98.1618 21.583C98.8337 21.8738 99.4063 22.3542 99.8094 22.9653C100.213 23.5765 100.429 24.2919 100.432 25.024C100.408 26.1546 100.008 27.2451 99.2968 28.124C97.1968 30.824 93.2548 31.255 90.3038 31.255C88.858 31.2665 87.4143 31.1419 85.9918 30.883C84.7324 30.6923 83.547 30.1678 82.5588 29.364C82.2107 29.063 81.9298 28.6922 81.7343 28.2757C81.5388 27.8591 81.433 27.4061 81.4238 26.946C81.4397 26.4382 81.5355 25.936 81.7078 25.458H88.7438C88.6755 25.6686 88.6372 25.8877 88.6298 26.109C88.6298 27.039 89.5098 27.535 91.0418 27.535C92.3178 27.535 93.1978 27.07 93.1978 26.326C93.1978 25.458 92.1198 25.272 90.8428 25.055C88.5728 24.714 85.8218 24.621 84.5428 22.513C84.1692 21.8738 83.9731 21.1464 83.9748 20.406C84.0063 19.5098 84.2682 18.6368 84.7351 17.8712C85.2021 17.1056 85.8584 16.4732 86.6408 16.035C88.7118 14.702 91.2938 14.485 93.6488 14.485C97.1098 14.485 99.2658 15.012 100.572 16.003C101.021 16.343 101.383 16.7841 101.629 17.2904C101.876 17.7967 101.999 18.354 101.99 18.917C101.983 19.2726 101.935 19.6263 101.848 19.971L95.1308 19.97Z" fill="#5A5B5E"/>
<path d="M131.373 12.125C131.029 10.0514 130.22 8.08253 129.007 6.36584C127.794 4.64914 126.209 3.22914 124.369 2.21221C122.53 1.19528 120.484 0.607789 118.385 0.493744C116.286 0.379698 114.189 0.742055 112.25 1.55367C110.311 2.36529 108.581 3.60512 107.189 5.18029C105.798 6.75546 104.78 8.62513 104.214 10.6492C103.647 12.6734 103.546 14.7994 103.918 16.8682C104.29 18.937 105.125 20.8948 106.361 22.595C109.752 27.2 113.684 31.408 117.406 35.834C117.691 35.5923 117.958 35.3299 118.206 35.049C121.636 31.149 124.785 27.713 128.127 23.734C129.503 22.1657 130.509 20.3079 131.07 18.2982C131.631 16.2886 131.733 14.1784 131.369 12.124" fill="#1CB6ED"/>
<path d="M130.103 12.348C129.8 10.4395 129.067 8.6249 127.959 7.04214C126.85 5.45939 125.396 4.15008 123.705 3.21366C122.015 2.27725 120.134 1.73836 118.204 1.63794C116.274 1.53752 114.347 1.8782 112.569 2.63411C110.79 3.39002 109.208 4.54128 107.941 6.00042C106.674 7.45957 105.757 9.18823 105.258 11.0551C104.759 12.9219 104.693 14.8779 105.063 16.7744C105.433 18.6709 106.231 20.458 107.396 22C110.475 26.245 114.044 30.124 117.422 34.2C117.683 33.977 117.927 33.7354 118.153 33.477C121.267 29.877 124.124 26.714 127.159 23.046C128.41 21.5914 129.324 19.877 129.833 18.0267C130.341 16.1764 130.433 14.2362 130.102 12.346" fill="#062E6B"/>
<path d="M120.088 22.183V22.063C120.088 21.173 120.088 20.284 120.088 19.394C120.088 19.311 120.118 19.282 120.188 19.252C120.892 18.9929 121.512 18.5447 121.979 17.9565C122.445 17.3684 122.741 16.6631 122.833 15.918C122.934 15.2961 122.886 14.6592 122.694 14.0593C122.501 13.4595 122.169 12.9138 121.725 12.467C121.338 12.0469 120.866 11.7133 120.341 11.4882C119.816 11.2631 119.249 11.1516 118.678 11.161C116.406 11.154 114.135 11.161 111.863 11.161C111.716 11.161 111.716 11.161 111.716 11.015V8.495C111.716 8.455 111.716 8.416 111.716 8.366C111.761 8.366 111.797 8.36 111.832 8.36C114.15 8.36 116.47 8.341 118.788 8.366C120.559 8.36538 122.259 9.05983 123.524 10.3C124.194 10.9424 124.73 11.7121 125.1 12.564C125.47 13.4159 125.666 14.3329 125.677 15.2615C125.688 16.1901 125.514 17.1116 125.164 17.9721C124.815 18.8326 124.298 19.6148 123.643 20.273C122.697 21.2286 121.494 21.8887 120.18 22.173C120.149 22.1783 120.119 22.1817 120.088 22.183Z" fill="#1CB6ED"/>
<path d="M114.512 16.743H111.723C111.723 16.701 111.723 16.668 111.723 16.636C111.723 15.776 111.723 14.917 111.723 14.058C111.723 13.964 111.75 13.941 111.842 13.941C114.124 13.941 116.405 13.941 118.687 13.941C118.893 13.9389 119.097 13.9823 119.284 14.0682C119.471 14.154 119.637 14.2801 119.77 14.4375C119.903 14.595 120 14.7798 120.053 14.9788C120.106 15.1779 120.115 15.3862 120.079 15.589C120.013 15.8749 119.864 16.1349 119.65 16.3358C119.437 16.5367 119.168 16.6694 118.879 16.717C118.783 16.7307 118.686 16.7377 118.589 16.738C118.207 16.738 117.824 16.738 117.442 16.738H117.323V25.11H114.523L114.512 16.743Z" fill="white"/>
</g>
</svg>
